G04 #@! TF.GenerationSoftware,KiCad,Pcbnew,(5.0.2)-1*
G04 #@! TF.CreationDate,2018-12-31T23:20:10+09:00*
G04 #@! TF.ProjectId,hdmi,68646d69-2e6b-4696-9361-645f70636258,rev?*
G04 #@! TF.SameCoordinates,Original*
G04 #@! TF.FileFunction,Legend,Top*
G04 #@! TF.FilePolarity,Positive*
%FSLAX46Y46*%
G04 Gerber Fmt 4.6, Leading zero omitted, Abs format (unit mm)*
G04 Created by KiCad (PCBNEW (5.0.2)-1) date 2018/12/31 23:20:10*
%MOMM*%
%LPD*%
G01*
G04 APERTURE LIST*
%ADD10C,0.200000*%
%ADD11C,0.150000*%
%ADD12C,0.101600*%
%ADD13C,0.066040*%
%ADD14C,0.152400*%
%ADD15C,0.300000*%
%ADD16C,0.180000*%
%ADD17C,0.127000*%
%ADD18C,0.076200*%
G04 APERTURE END LIST*
D10*
X101315714Y-126742857D02*
X101315714Y-125542857D01*
X101315714Y-126114285D02*
X102001428Y-126114285D01*
X102001428Y-126742857D02*
X102001428Y-125542857D01*
X102572857Y-126742857D02*
X102572857Y-125542857D01*
X102858571Y-125542857D01*
X103030000Y-125600000D01*
X103144285Y-125714285D01*
X103201428Y-125828571D01*
X103258571Y-126057142D01*
X103258571Y-126228571D01*
X103201428Y-126457142D01*
X103144285Y-126571428D01*
X103030000Y-126685714D01*
X102858571Y-126742857D01*
X102572857Y-126742857D01*
X103772857Y-126742857D02*
X103772857Y-125542857D01*
X104172857Y-126400000D01*
X104572857Y-125542857D01*
X104572857Y-126742857D01*
X105144285Y-126742857D02*
X105144285Y-125542857D01*
X107030000Y-126114285D02*
X107201428Y-126171428D01*
X107258571Y-126228571D01*
X107315714Y-126342857D01*
X107315714Y-126514285D01*
X107258571Y-126628571D01*
X107201428Y-126685714D01*
X107087142Y-126742857D01*
X106630000Y-126742857D01*
X106630000Y-125542857D01*
X107030000Y-125542857D01*
X107144285Y-125600000D01*
X107201428Y-125657142D01*
X107258571Y-125771428D01*
X107258571Y-125885714D01*
X107201428Y-126000000D01*
X107144285Y-126057142D01*
X107030000Y-126114285D01*
X106630000Y-126114285D01*
X108287142Y-126685714D02*
X108172857Y-126742857D01*
X107944285Y-126742857D01*
X107830000Y-126685714D01*
X107772857Y-126571428D01*
X107772857Y-126114285D01*
X107830000Y-126000000D01*
X107944285Y-125942857D01*
X108172857Y-125942857D01*
X108287142Y-126000000D01*
X108344285Y-126114285D01*
X108344285Y-126228571D01*
X107772857Y-126342857D01*
X109372857Y-126742857D02*
X109372857Y-126114285D01*
X109315714Y-126000000D01*
X109201428Y-125942857D01*
X108972857Y-125942857D01*
X108858571Y-126000000D01*
X109372857Y-126685714D02*
X109258571Y-126742857D01*
X108972857Y-126742857D01*
X108858571Y-126685714D01*
X108801428Y-126571428D01*
X108801428Y-126457142D01*
X108858571Y-126342857D01*
X108972857Y-126285714D01*
X109258571Y-126285714D01*
X109372857Y-126228571D01*
X109944285Y-126742857D02*
X109944285Y-125542857D01*
X110058571Y-126285714D02*
X110401428Y-126742857D01*
X110401428Y-125942857D02*
X109944285Y-126400000D01*
X111087142Y-126742857D02*
X110972857Y-126685714D01*
X110915714Y-126628571D01*
X110858571Y-126514285D01*
X110858571Y-126171428D01*
X110915714Y-126057142D01*
X110972857Y-126000000D01*
X111087142Y-125942857D01*
X111258571Y-125942857D01*
X111372857Y-126000000D01*
X111430000Y-126057142D01*
X111487142Y-126171428D01*
X111487142Y-126514285D01*
X111430000Y-126628571D01*
X111372857Y-126685714D01*
X111258571Y-126742857D01*
X111087142Y-126742857D01*
X112515714Y-125942857D02*
X112515714Y-126742857D01*
X112001428Y-125942857D02*
X112001428Y-126571428D01*
X112058571Y-126685714D01*
X112172857Y-126742857D01*
X112344285Y-126742857D01*
X112458571Y-126685714D01*
X112515714Y-126628571D01*
X112915714Y-125942857D02*
X113372857Y-125942857D01*
X113087142Y-125542857D02*
X113087142Y-126571428D01*
X113144285Y-126685714D01*
X113258571Y-126742857D01*
X113372857Y-126742857D01*
X115087142Y-126114285D02*
X115258571Y-126171428D01*
X115315714Y-126228571D01*
X115372857Y-126342857D01*
X115372857Y-126514285D01*
X115315714Y-126628571D01*
X115258571Y-126685714D01*
X115144285Y-126742857D01*
X114687142Y-126742857D01*
X114687142Y-125542857D01*
X115087142Y-125542857D01*
X115201428Y-125600000D01*
X115258571Y-125657142D01*
X115315714Y-125771428D01*
X115315714Y-125885714D01*
X115258571Y-126000000D01*
X115201428Y-126057142D01*
X115087142Y-126114285D01*
X114687142Y-126114285D01*
X116058571Y-126742857D02*
X115944285Y-126685714D01*
X115887142Y-126628571D01*
X115830000Y-126514285D01*
X115830000Y-126171428D01*
X115887142Y-126057142D01*
X115944285Y-126000000D01*
X116058571Y-125942857D01*
X116230000Y-125942857D01*
X116344285Y-126000000D01*
X116401428Y-126057142D01*
X116458571Y-126171428D01*
X116458571Y-126514285D01*
X116401428Y-126628571D01*
X116344285Y-126685714D01*
X116230000Y-126742857D01*
X116058571Y-126742857D01*
X117487142Y-126742857D02*
X117487142Y-126114285D01*
X117430000Y-126000000D01*
X117315714Y-125942857D01*
X117087142Y-125942857D01*
X116972857Y-126000000D01*
X117487142Y-126685714D02*
X117372857Y-126742857D01*
X117087142Y-126742857D01*
X116972857Y-126685714D01*
X116915714Y-126571428D01*
X116915714Y-126457142D01*
X116972857Y-126342857D01*
X117087142Y-126285714D01*
X117372857Y-126285714D01*
X117487142Y-126228571D01*
X118058571Y-126742857D02*
X118058571Y-125942857D01*
X118058571Y-126171428D02*
X118115714Y-126057142D01*
X118172857Y-126000000D01*
X118287142Y-125942857D01*
X118401428Y-125942857D01*
X119315714Y-126742857D02*
X119315714Y-125542857D01*
X119315714Y-126685714D02*
X119201428Y-126742857D01*
X118972857Y-126742857D01*
X118858571Y-126685714D01*
X118801428Y-126628571D01*
X118744285Y-126514285D01*
X118744285Y-126171428D01*
X118801428Y-126057142D01*
X118858571Y-126000000D01*
X118972857Y-125942857D01*
X119201428Y-125942857D01*
X119315714Y-126000000D01*
X101201428Y-127942857D02*
X101487142Y-128742857D01*
X101772857Y-127942857D01*
X102858571Y-128742857D02*
X102172857Y-128742857D01*
X102515714Y-128742857D02*
X102515714Y-127542857D01*
X102401428Y-127714285D01*
X102287142Y-127828571D01*
X102172857Y-127885714D01*
X103372857Y-128628571D02*
X103430000Y-128685714D01*
X103372857Y-128742857D01*
X103315714Y-128685714D01*
X103372857Y-128628571D01*
X103372857Y-128742857D01*
X104172857Y-127542857D02*
X104287142Y-127542857D01*
X104401428Y-127600000D01*
X104458571Y-127657142D01*
X104515714Y-127771428D01*
X104572857Y-128000000D01*
X104572857Y-128285714D01*
X104515714Y-128514285D01*
X104458571Y-128628571D01*
X104401428Y-128685714D01*
X104287142Y-128742857D01*
X104172857Y-128742857D01*
X104058571Y-128685714D01*
X104001428Y-128628571D01*
X103944285Y-128514285D01*
X103887142Y-128285714D01*
X103887142Y-128000000D01*
X103944285Y-127771428D01*
X104001428Y-127657142D01*
X104058571Y-127600000D01*
X104172857Y-127542857D01*
X106630000Y-128742857D02*
X105944285Y-128742857D01*
X106287142Y-128742857D02*
X106287142Y-127542857D01*
X106172857Y-127714285D01*
X106058571Y-127828571D01*
X105944285Y-127885714D01*
X107315714Y-128057142D02*
X107201428Y-128000000D01*
X107144285Y-127942857D01*
X107087142Y-127828571D01*
X107087142Y-127771428D01*
X107144285Y-127657142D01*
X107201428Y-127600000D01*
X107315714Y-127542857D01*
X107544285Y-127542857D01*
X107658571Y-127600000D01*
X107715714Y-127657142D01*
X107772857Y-127771428D01*
X107772857Y-127828571D01*
X107715714Y-127942857D01*
X107658571Y-128000000D01*
X107544285Y-128057142D01*
X107315714Y-128057142D01*
X107201428Y-128114285D01*
X107144285Y-128171428D01*
X107087142Y-128285714D01*
X107087142Y-128514285D01*
X107144285Y-128628571D01*
X107201428Y-128685714D01*
X107315714Y-128742857D01*
X107544285Y-128742857D01*
X107658571Y-128685714D01*
X107715714Y-128628571D01*
X107772857Y-128514285D01*
X107772857Y-128285714D01*
X107715714Y-128171428D01*
X107658571Y-128114285D01*
X107544285Y-128057142D01*
X108915714Y-128742857D02*
X108230000Y-128742857D01*
X108572857Y-128742857D02*
X108572857Y-127542857D01*
X108458571Y-127714285D01*
X108344285Y-127828571D01*
X108230000Y-127885714D01*
X109372857Y-127657142D02*
X109430000Y-127600000D01*
X109544285Y-127542857D01*
X109830000Y-127542857D01*
X109944285Y-127600000D01*
X110001428Y-127657142D01*
X110058571Y-127771428D01*
X110058571Y-127885714D01*
X110001428Y-128057142D01*
X109315714Y-128742857D01*
X110058571Y-128742857D01*
X142028571Y-102561904D02*
X142028571Y-101761904D01*
X142219047Y-101761904D01*
X142333333Y-101800000D01*
X142409523Y-101876190D01*
X142447619Y-101952380D01*
X142485714Y-102104761D01*
X142485714Y-102219047D01*
X142447619Y-102371428D01*
X142409523Y-102447619D01*
X142333333Y-102523809D01*
X142219047Y-102561904D01*
X142028571Y-102561904D01*
X142790476Y-101838095D02*
X142828571Y-101800000D01*
X142904761Y-101761904D01*
X143095238Y-101761904D01*
X143171428Y-101800000D01*
X143209523Y-101838095D01*
X143247619Y-101914285D01*
X143247619Y-101990476D01*
X143209523Y-102104761D01*
X142752380Y-102561904D01*
X143247619Y-102561904D01*
X143552380Y-101838095D02*
X143590476Y-101800000D01*
X143666666Y-101761904D01*
X143857142Y-101761904D01*
X143933333Y-101800000D01*
X143971428Y-101838095D01*
X144009523Y-101914285D01*
X144009523Y-101990476D01*
X143971428Y-102104761D01*
X143514285Y-102561904D01*
X144009523Y-102561904D01*
X139328571Y-102561904D02*
X139328571Y-101761904D01*
X139519047Y-101761904D01*
X139633333Y-101800000D01*
X139709523Y-101876190D01*
X139747619Y-101952380D01*
X139785714Y-102104761D01*
X139785714Y-102219047D01*
X139747619Y-102371428D01*
X139709523Y-102447619D01*
X139633333Y-102523809D01*
X139519047Y-102561904D01*
X139328571Y-102561904D01*
X140090476Y-101838095D02*
X140128571Y-101800000D01*
X140204761Y-101761904D01*
X140395238Y-101761904D01*
X140471428Y-101800000D01*
X140509523Y-101838095D01*
X140547619Y-101914285D01*
X140547619Y-101990476D01*
X140509523Y-102104761D01*
X140052380Y-102561904D01*
X140547619Y-102561904D01*
X141042857Y-101761904D02*
X141119047Y-101761904D01*
X141195238Y-101800000D01*
X141233333Y-101838095D01*
X141271428Y-101914285D01*
X141309523Y-102066666D01*
X141309523Y-102257142D01*
X141271428Y-102409523D01*
X141233333Y-102485714D01*
X141195238Y-102523809D01*
X141119047Y-102561904D01*
X141042857Y-102561904D01*
X140966666Y-102523809D01*
X140928571Y-102485714D01*
X140890476Y-102409523D01*
X140852380Y-102257142D01*
X140852380Y-102066666D01*
X140890476Y-101914285D01*
X140928571Y-101838095D01*
X140966666Y-101800000D01*
X141042857Y-101761904D01*
X136948571Y-102581904D02*
X136948571Y-101781904D01*
X137139047Y-101781904D01*
X137253333Y-101820000D01*
X137329523Y-101896190D01*
X137367619Y-101972380D01*
X137405714Y-102124761D01*
X137405714Y-102239047D01*
X137367619Y-102391428D01*
X137329523Y-102467619D01*
X137253333Y-102543809D01*
X137139047Y-102581904D01*
X136948571Y-102581904D01*
X138167619Y-102581904D02*
X137710476Y-102581904D01*
X137939047Y-102581904D02*
X137939047Y-101781904D01*
X137862857Y-101896190D01*
X137786666Y-101972380D01*
X137710476Y-102010476D01*
X138624761Y-102124761D02*
X138548571Y-102086666D01*
X138510476Y-102048571D01*
X138472380Y-101972380D01*
X138472380Y-101934285D01*
X138510476Y-101858095D01*
X138548571Y-101820000D01*
X138624761Y-101781904D01*
X138777142Y-101781904D01*
X138853333Y-101820000D01*
X138891428Y-101858095D01*
X138929523Y-101934285D01*
X138929523Y-101972380D01*
X138891428Y-102048571D01*
X138853333Y-102086666D01*
X138777142Y-102124761D01*
X138624761Y-102124761D01*
X138548571Y-102162857D01*
X138510476Y-102200952D01*
X138472380Y-102277142D01*
X138472380Y-102429523D01*
X138510476Y-102505714D01*
X138548571Y-102543809D01*
X138624761Y-102581904D01*
X138777142Y-102581904D01*
X138853333Y-102543809D01*
X138891428Y-102505714D01*
X138929523Y-102429523D01*
X138929523Y-102277142D01*
X138891428Y-102200952D01*
X138853333Y-102162857D01*
X138777142Y-102124761D01*
X134338571Y-102641904D02*
X134338571Y-101841904D01*
X134529047Y-101841904D01*
X134643333Y-101880000D01*
X134719523Y-101956190D01*
X134757619Y-102032380D01*
X134795714Y-102184761D01*
X134795714Y-102299047D01*
X134757619Y-102451428D01*
X134719523Y-102527619D01*
X134643333Y-102603809D01*
X134529047Y-102641904D01*
X134338571Y-102641904D01*
X135557619Y-102641904D02*
X135100476Y-102641904D01*
X135329047Y-102641904D02*
X135329047Y-101841904D01*
X135252857Y-101956190D01*
X135176666Y-102032380D01*
X135100476Y-102070476D01*
X136243333Y-101841904D02*
X136090952Y-101841904D01*
X136014761Y-101880000D01*
X135976666Y-101918095D01*
X135900476Y-102032380D01*
X135862380Y-102184761D01*
X135862380Y-102489523D01*
X135900476Y-102565714D01*
X135938571Y-102603809D01*
X136014761Y-102641904D01*
X136167142Y-102641904D01*
X136243333Y-102603809D01*
X136281428Y-102565714D01*
X136319523Y-102489523D01*
X136319523Y-102299047D01*
X136281428Y-102222857D01*
X136243333Y-102184761D01*
X136167142Y-102146666D01*
X136014761Y-102146666D01*
X135938571Y-102184761D01*
X135900476Y-102222857D01*
X135862380Y-102299047D01*
X131778571Y-102681904D02*
X131778571Y-101881904D01*
X131969047Y-101881904D01*
X132083333Y-101920000D01*
X132159523Y-101996190D01*
X132197619Y-102072380D01*
X132235714Y-102224761D01*
X132235714Y-102339047D01*
X132197619Y-102491428D01*
X132159523Y-102567619D01*
X132083333Y-102643809D01*
X131969047Y-102681904D01*
X131778571Y-102681904D01*
X132997619Y-102681904D02*
X132540476Y-102681904D01*
X132769047Y-102681904D02*
X132769047Y-101881904D01*
X132692857Y-101996190D01*
X132616666Y-102072380D01*
X132540476Y-102110476D01*
X133683333Y-102148571D02*
X133683333Y-102681904D01*
X133492857Y-101843809D02*
X133302380Y-102415238D01*
X133797619Y-102415238D01*
X141968571Y-96171904D02*
X141968571Y-95371904D01*
X142159047Y-95371904D01*
X142273333Y-95410000D01*
X142349523Y-95486190D01*
X142387619Y-95562380D01*
X142425714Y-95714761D01*
X142425714Y-95829047D01*
X142387619Y-95981428D01*
X142349523Y-96057619D01*
X142273333Y-96133809D01*
X142159047Y-96171904D01*
X141968571Y-96171904D01*
X142730476Y-95448095D02*
X142768571Y-95410000D01*
X142844761Y-95371904D01*
X143035238Y-95371904D01*
X143111428Y-95410000D01*
X143149523Y-95448095D01*
X143187619Y-95524285D01*
X143187619Y-95600476D01*
X143149523Y-95714761D01*
X142692380Y-96171904D01*
X143187619Y-96171904D01*
X143454285Y-95371904D02*
X143949523Y-95371904D01*
X143682857Y-95676666D01*
X143797142Y-95676666D01*
X143873333Y-95714761D01*
X143911428Y-95752857D01*
X143949523Y-95829047D01*
X143949523Y-96019523D01*
X143911428Y-96095714D01*
X143873333Y-96133809D01*
X143797142Y-96171904D01*
X143568571Y-96171904D01*
X143492380Y-96133809D01*
X143454285Y-96095714D01*
X139438571Y-96201904D02*
X139438571Y-95401904D01*
X139629047Y-95401904D01*
X139743333Y-95440000D01*
X139819523Y-95516190D01*
X139857619Y-95592380D01*
X139895714Y-95744761D01*
X139895714Y-95859047D01*
X139857619Y-96011428D01*
X139819523Y-96087619D01*
X139743333Y-96163809D01*
X139629047Y-96201904D01*
X139438571Y-96201904D01*
X140200476Y-95478095D02*
X140238571Y-95440000D01*
X140314761Y-95401904D01*
X140505238Y-95401904D01*
X140581428Y-95440000D01*
X140619523Y-95478095D01*
X140657619Y-95554285D01*
X140657619Y-95630476D01*
X140619523Y-95744761D01*
X140162380Y-96201904D01*
X140657619Y-96201904D01*
X141419523Y-96201904D02*
X140962380Y-96201904D01*
X141190952Y-96201904D02*
X141190952Y-95401904D01*
X141114761Y-95516190D01*
X141038571Y-95592380D01*
X140962380Y-95630476D01*
X136828571Y-96191904D02*
X136828571Y-95391904D01*
X137019047Y-95391904D01*
X137133333Y-95430000D01*
X137209523Y-95506190D01*
X137247619Y-95582380D01*
X137285714Y-95734761D01*
X137285714Y-95849047D01*
X137247619Y-96001428D01*
X137209523Y-96077619D01*
X137133333Y-96153809D01*
X137019047Y-96191904D01*
X136828571Y-96191904D01*
X138047619Y-96191904D02*
X137590476Y-96191904D01*
X137819047Y-96191904D02*
X137819047Y-95391904D01*
X137742857Y-95506190D01*
X137666666Y-95582380D01*
X137590476Y-95620476D01*
X138428571Y-96191904D02*
X138580952Y-96191904D01*
X138657142Y-96153809D01*
X138695238Y-96115714D01*
X138771428Y-96001428D01*
X138809523Y-95849047D01*
X138809523Y-95544285D01*
X138771428Y-95468095D01*
X138733333Y-95430000D01*
X138657142Y-95391904D01*
X138504761Y-95391904D01*
X138428571Y-95430000D01*
X138390476Y-95468095D01*
X138352380Y-95544285D01*
X138352380Y-95734761D01*
X138390476Y-95810952D01*
X138428571Y-95849047D01*
X138504761Y-95887142D01*
X138657142Y-95887142D01*
X138733333Y-95849047D01*
X138771428Y-95810952D01*
X138809523Y-95734761D01*
X134198571Y-96201904D02*
X134198571Y-95401904D01*
X134389047Y-95401904D01*
X134503333Y-95440000D01*
X134579523Y-95516190D01*
X134617619Y-95592380D01*
X134655714Y-95744761D01*
X134655714Y-95859047D01*
X134617619Y-96011428D01*
X134579523Y-96087619D01*
X134503333Y-96163809D01*
X134389047Y-96201904D01*
X134198571Y-96201904D01*
X135417619Y-96201904D02*
X134960476Y-96201904D01*
X135189047Y-96201904D02*
X135189047Y-95401904D01*
X135112857Y-95516190D01*
X135036666Y-95592380D01*
X134960476Y-95630476D01*
X135684285Y-95401904D02*
X136217619Y-95401904D01*
X135874761Y-96201904D01*
X131728571Y-96171904D02*
X131728571Y-95371904D01*
X131919047Y-95371904D01*
X132033333Y-95410000D01*
X132109523Y-95486190D01*
X132147619Y-95562380D01*
X132185714Y-95714761D01*
X132185714Y-95829047D01*
X132147619Y-95981428D01*
X132109523Y-96057619D01*
X132033333Y-96133809D01*
X131919047Y-96171904D01*
X131728571Y-96171904D01*
X132947619Y-96171904D02*
X132490476Y-96171904D01*
X132719047Y-96171904D02*
X132719047Y-95371904D01*
X132642857Y-95486190D01*
X132566666Y-95562380D01*
X132490476Y-95600476D01*
X133671428Y-95371904D02*
X133290476Y-95371904D01*
X133252380Y-95752857D01*
X133290476Y-95714761D01*
X133366666Y-95676666D01*
X133557142Y-95676666D01*
X133633333Y-95714761D01*
X133671428Y-95752857D01*
X133709523Y-95829047D01*
X133709523Y-96019523D01*
X133671428Y-96095714D01*
X133633333Y-96133809D01*
X133557142Y-96171904D01*
X133366666Y-96171904D01*
X133290476Y-96133809D01*
X133252380Y-96095714D01*
X129248571Y-96191904D02*
X129248571Y-95391904D01*
X129439047Y-95391904D01*
X129553333Y-95430000D01*
X129629523Y-95506190D01*
X129667619Y-95582380D01*
X129705714Y-95734761D01*
X129705714Y-95849047D01*
X129667619Y-96001428D01*
X129629523Y-96077619D01*
X129553333Y-96153809D01*
X129439047Y-96191904D01*
X129248571Y-96191904D01*
X130467619Y-96191904D02*
X130010476Y-96191904D01*
X130239047Y-96191904D02*
X130239047Y-95391904D01*
X130162857Y-95506190D01*
X130086666Y-95582380D01*
X130010476Y-95620476D01*
X130734285Y-95391904D02*
X131229523Y-95391904D01*
X130962857Y-95696666D01*
X131077142Y-95696666D01*
X131153333Y-95734761D01*
X131191428Y-95772857D01*
X131229523Y-95849047D01*
X131229523Y-96039523D01*
X131191428Y-96115714D01*
X131153333Y-96153809D01*
X131077142Y-96191904D01*
X130848571Y-96191904D01*
X130772380Y-96153809D01*
X130734285Y-96115714D01*
X129418571Y-102681904D02*
X129418571Y-101881904D01*
X129609047Y-101881904D01*
X129723333Y-101920000D01*
X129799523Y-101996190D01*
X129837619Y-102072380D01*
X129875714Y-102224761D01*
X129875714Y-102339047D01*
X129837619Y-102491428D01*
X129799523Y-102567619D01*
X129723333Y-102643809D01*
X129609047Y-102681904D01*
X129418571Y-102681904D01*
X130637619Y-102681904D02*
X130180476Y-102681904D01*
X130409047Y-102681904D02*
X130409047Y-101881904D01*
X130332857Y-101996190D01*
X130256666Y-102072380D01*
X130180476Y-102110476D01*
X130942380Y-101958095D02*
X130980476Y-101920000D01*
X131056666Y-101881904D01*
X131247142Y-101881904D01*
X131323333Y-101920000D01*
X131361428Y-101958095D01*
X131399523Y-102034285D01*
X131399523Y-102110476D01*
X131361428Y-102224761D01*
X130904285Y-102681904D01*
X131399523Y-102681904D01*
X126778571Y-102731904D02*
X126778571Y-101931904D01*
X126969047Y-101931904D01*
X127083333Y-101970000D01*
X127159523Y-102046190D01*
X127197619Y-102122380D01*
X127235714Y-102274761D01*
X127235714Y-102389047D01*
X127197619Y-102541428D01*
X127159523Y-102617619D01*
X127083333Y-102693809D01*
X126969047Y-102731904D01*
X126778571Y-102731904D01*
X127997619Y-102731904D02*
X127540476Y-102731904D01*
X127769047Y-102731904D02*
X127769047Y-101931904D01*
X127692857Y-102046190D01*
X127616666Y-102122380D01*
X127540476Y-102160476D01*
X128492857Y-101931904D02*
X128569047Y-101931904D01*
X128645238Y-101970000D01*
X128683333Y-102008095D01*
X128721428Y-102084285D01*
X128759523Y-102236666D01*
X128759523Y-102427142D01*
X128721428Y-102579523D01*
X128683333Y-102655714D01*
X128645238Y-102693809D01*
X128569047Y-102731904D01*
X128492857Y-102731904D01*
X128416666Y-102693809D01*
X128378571Y-102655714D01*
X128340476Y-102579523D01*
X128302380Y-102427142D01*
X128302380Y-102236666D01*
X128340476Y-102084285D01*
X128378571Y-102008095D01*
X128416666Y-101970000D01*
X128492857Y-101931904D01*
X126728571Y-96151904D02*
X126728571Y-95351904D01*
X126919047Y-95351904D01*
X127033333Y-95390000D01*
X127109523Y-95466190D01*
X127147619Y-95542380D01*
X127185714Y-95694761D01*
X127185714Y-95809047D01*
X127147619Y-95961428D01*
X127109523Y-96037619D01*
X127033333Y-96113809D01*
X126919047Y-96151904D01*
X126728571Y-96151904D01*
X127947619Y-96151904D02*
X127490476Y-96151904D01*
X127719047Y-96151904D02*
X127719047Y-95351904D01*
X127642857Y-95466190D01*
X127566666Y-95542380D01*
X127490476Y-95580476D01*
X128709523Y-96151904D02*
X128252380Y-96151904D01*
X128480952Y-96151904D02*
X128480952Y-95351904D01*
X128404761Y-95466190D01*
X128328571Y-95542380D01*
X128252380Y-95580476D01*
X139009523Y-126224761D02*
X139152380Y-126272380D01*
X139390476Y-126272380D01*
X139485714Y-126224761D01*
X139533333Y-126177142D01*
X139580952Y-126081904D01*
X139580952Y-125986666D01*
X139533333Y-125891428D01*
X139485714Y-125843809D01*
X139390476Y-125796190D01*
X139200000Y-125748571D01*
X139104761Y-125700952D01*
X139057142Y-125653333D01*
X139009523Y-125558095D01*
X139009523Y-125462857D01*
X139057142Y-125367619D01*
X139104761Y-125320000D01*
X139200000Y-125272380D01*
X139438095Y-125272380D01*
X139580952Y-125320000D01*
X140580952Y-126177142D02*
X140533333Y-126224761D01*
X140390476Y-126272380D01*
X140295238Y-126272380D01*
X140152380Y-126224761D01*
X140057142Y-126129523D01*
X140009523Y-126034285D01*
X139961904Y-125843809D01*
X139961904Y-125700952D01*
X140009523Y-125510476D01*
X140057142Y-125415238D01*
X140152380Y-125320000D01*
X140295238Y-125272380D01*
X140390476Y-125272380D01*
X140533333Y-125320000D01*
X140580952Y-125367619D01*
X141485714Y-126272380D02*
X141009523Y-126272380D01*
X141009523Y-125272380D01*
X129215714Y-126264761D02*
X129358571Y-126312380D01*
X129596666Y-126312380D01*
X129691904Y-126264761D01*
X129739523Y-126217142D01*
X129787142Y-126121904D01*
X129787142Y-126026666D01*
X129739523Y-125931428D01*
X129691904Y-125883809D01*
X129596666Y-125836190D01*
X129406190Y-125788571D01*
X129310952Y-125740952D01*
X129263333Y-125693333D01*
X129215714Y-125598095D01*
X129215714Y-125502857D01*
X129263333Y-125407619D01*
X129310952Y-125360000D01*
X129406190Y-125312380D01*
X129644285Y-125312380D01*
X129787142Y-125360000D01*
X130215714Y-126312380D02*
X130215714Y-125312380D01*
X130453809Y-125312380D01*
X130596666Y-125360000D01*
X130691904Y-125455238D01*
X130739523Y-125550476D01*
X130787142Y-125740952D01*
X130787142Y-125883809D01*
X130739523Y-126074285D01*
X130691904Y-126169523D01*
X130596666Y-126264761D01*
X130453809Y-126312380D01*
X130215714Y-126312380D01*
X131168095Y-126026666D02*
X131644285Y-126026666D01*
X131072857Y-126312380D02*
X131406190Y-125312380D01*
X131739523Y-126312380D01*
X124431904Y-102782380D02*
X124431904Y-101782380D01*
X124670000Y-101782380D01*
X124812857Y-101830000D01*
X124908095Y-101925238D01*
X124955714Y-102020476D01*
X125003333Y-102210952D01*
X125003333Y-102353809D01*
X124955714Y-102544285D01*
X124908095Y-102639523D01*
X124812857Y-102734761D01*
X124670000Y-102782380D01*
X124431904Y-102782380D01*
X125574761Y-102210952D02*
X125479523Y-102163333D01*
X125431904Y-102115714D01*
X125384285Y-102020476D01*
X125384285Y-101972857D01*
X125431904Y-101877619D01*
X125479523Y-101830000D01*
X125574761Y-101782380D01*
X125765238Y-101782380D01*
X125860476Y-101830000D01*
X125908095Y-101877619D01*
X125955714Y-101972857D01*
X125955714Y-102020476D01*
X125908095Y-102115714D01*
X125860476Y-102163333D01*
X125765238Y-102210952D01*
X125574761Y-102210952D01*
X125479523Y-102258571D01*
X125431904Y-102306190D01*
X125384285Y-102401428D01*
X125384285Y-102591904D01*
X125431904Y-102687142D01*
X125479523Y-102734761D01*
X125574761Y-102782380D01*
X125765238Y-102782380D01*
X125860476Y-102734761D01*
X125908095Y-102687142D01*
X125955714Y-102591904D01*
X125955714Y-102401428D01*
X125908095Y-102306190D01*
X125860476Y-102258571D01*
X125765238Y-102210952D01*
X121821904Y-102772380D02*
X121821904Y-101772380D01*
X122060000Y-101772380D01*
X122202857Y-101820000D01*
X122298095Y-101915238D01*
X122345714Y-102010476D01*
X122393333Y-102200952D01*
X122393333Y-102343809D01*
X122345714Y-102534285D01*
X122298095Y-102629523D01*
X122202857Y-102724761D01*
X122060000Y-102772380D01*
X121821904Y-102772380D01*
X123250476Y-101772380D02*
X123060000Y-101772380D01*
X122964761Y-101820000D01*
X122917142Y-101867619D01*
X122821904Y-102010476D01*
X122774285Y-102200952D01*
X122774285Y-102581904D01*
X122821904Y-102677142D01*
X122869523Y-102724761D01*
X122964761Y-102772380D01*
X123155238Y-102772380D01*
X123250476Y-102724761D01*
X123298095Y-102677142D01*
X123345714Y-102581904D01*
X123345714Y-102343809D01*
X123298095Y-102248571D01*
X123250476Y-102200952D01*
X123155238Y-102153333D01*
X122964761Y-102153333D01*
X122869523Y-102200952D01*
X122821904Y-102248571D01*
X122774285Y-102343809D01*
X124381904Y-96272380D02*
X124381904Y-95272380D01*
X124620000Y-95272380D01*
X124762857Y-95320000D01*
X124858095Y-95415238D01*
X124905714Y-95510476D01*
X124953333Y-95700952D01*
X124953333Y-95843809D01*
X124905714Y-96034285D01*
X124858095Y-96129523D01*
X124762857Y-96224761D01*
X124620000Y-96272380D01*
X124381904Y-96272380D01*
X125429523Y-96272380D02*
X125620000Y-96272380D01*
X125715238Y-96224761D01*
X125762857Y-96177142D01*
X125858095Y-96034285D01*
X125905714Y-95843809D01*
X125905714Y-95462857D01*
X125858095Y-95367619D01*
X125810476Y-95320000D01*
X125715238Y-95272380D01*
X125524761Y-95272380D01*
X125429523Y-95320000D01*
X125381904Y-95367619D01*
X125334285Y-95462857D01*
X125334285Y-95700952D01*
X125381904Y-95796190D01*
X125429523Y-95843809D01*
X125524761Y-95891428D01*
X125715238Y-95891428D01*
X125810476Y-95843809D01*
X125858095Y-95796190D01*
X125905714Y-95700952D01*
X121991904Y-96252380D02*
X121991904Y-95252380D01*
X122230000Y-95252380D01*
X122372857Y-95300000D01*
X122468095Y-95395238D01*
X122515714Y-95490476D01*
X122563333Y-95680952D01*
X122563333Y-95823809D01*
X122515714Y-96014285D01*
X122468095Y-96109523D01*
X122372857Y-96204761D01*
X122230000Y-96252380D01*
X121991904Y-96252380D01*
X122896666Y-95252380D02*
X123563333Y-95252380D01*
X123134761Y-96252380D01*
X116751904Y-96242380D02*
X116751904Y-95242380D01*
X116990000Y-95242380D01*
X117132857Y-95290000D01*
X117228095Y-95385238D01*
X117275714Y-95480476D01*
X117323333Y-95670952D01*
X117323333Y-95813809D01*
X117275714Y-96004285D01*
X117228095Y-96099523D01*
X117132857Y-96194761D01*
X116990000Y-96242380D01*
X116751904Y-96242380D01*
X118228095Y-95242380D02*
X117751904Y-95242380D01*
X117704285Y-95718571D01*
X117751904Y-95670952D01*
X117847142Y-95623333D01*
X118085238Y-95623333D01*
X118180476Y-95670952D01*
X118228095Y-95718571D01*
X118275714Y-95813809D01*
X118275714Y-96051904D01*
X118228095Y-96147142D01*
X118180476Y-96194761D01*
X118085238Y-96242380D01*
X117847142Y-96242380D01*
X117751904Y-96194761D01*
X117704285Y-96147142D01*
X114291904Y-96242380D02*
X114291904Y-95242380D01*
X114530000Y-95242380D01*
X114672857Y-95290000D01*
X114768095Y-95385238D01*
X114815714Y-95480476D01*
X114863333Y-95670952D01*
X114863333Y-95813809D01*
X114815714Y-96004285D01*
X114768095Y-96099523D01*
X114672857Y-96194761D01*
X114530000Y-96242380D01*
X114291904Y-96242380D01*
X115196666Y-95242380D02*
X115815714Y-95242380D01*
X115482380Y-95623333D01*
X115625238Y-95623333D01*
X115720476Y-95670952D01*
X115768095Y-95718571D01*
X115815714Y-95813809D01*
X115815714Y-96051904D01*
X115768095Y-96147142D01*
X115720476Y-96194761D01*
X115625238Y-96242380D01*
X115339523Y-96242380D01*
X115244285Y-96194761D01*
X115196666Y-96147142D01*
X119702380Y-96085714D02*
X119664285Y-96123809D01*
X119550000Y-96161904D01*
X119473809Y-96161904D01*
X119359523Y-96123809D01*
X119283333Y-96047619D01*
X119245238Y-95971428D01*
X119207142Y-95819047D01*
X119207142Y-95704761D01*
X119245238Y-95552380D01*
X119283333Y-95476190D01*
X119359523Y-95400000D01*
X119473809Y-95361904D01*
X119550000Y-95361904D01*
X119664285Y-95400000D01*
X119702380Y-95438095D01*
X120045238Y-96161904D02*
X120045238Y-95361904D01*
X120502380Y-96161904D02*
X120159523Y-95704761D01*
X120502380Y-95361904D02*
X120045238Y-95819047D01*
X120845238Y-95857142D02*
X121454761Y-95857142D01*
X119482380Y-102655714D02*
X119444285Y-102693809D01*
X119330000Y-102731904D01*
X119253809Y-102731904D01*
X119139523Y-102693809D01*
X119063333Y-102617619D01*
X119025238Y-102541428D01*
X118987142Y-102389047D01*
X118987142Y-102274761D01*
X119025238Y-102122380D01*
X119063333Y-102046190D01*
X119139523Y-101970000D01*
X119253809Y-101931904D01*
X119330000Y-101931904D01*
X119444285Y-101970000D01*
X119482380Y-102008095D01*
X119825238Y-102731904D02*
X119825238Y-101931904D01*
X120282380Y-102731904D02*
X119939523Y-102274761D01*
X120282380Y-101931904D02*
X119825238Y-102389047D01*
X120625238Y-102427142D02*
X121234761Y-102427142D01*
X120930000Y-102731904D02*
X120930000Y-102122380D01*
X116681904Y-102802380D02*
X116681904Y-101802380D01*
X116920000Y-101802380D01*
X117062857Y-101850000D01*
X117158095Y-101945238D01*
X117205714Y-102040476D01*
X117253333Y-102230952D01*
X117253333Y-102373809D01*
X117205714Y-102564285D01*
X117158095Y-102659523D01*
X117062857Y-102754761D01*
X116920000Y-102802380D01*
X116681904Y-102802380D01*
X118110476Y-102135714D02*
X118110476Y-102802380D01*
X117872380Y-101754761D02*
X117634285Y-102469047D01*
X118253333Y-102469047D01*
X111641904Y-96282380D02*
X111641904Y-95282380D01*
X111880000Y-95282380D01*
X112022857Y-95330000D01*
X112118095Y-95425238D01*
X112165714Y-95520476D01*
X112213333Y-95710952D01*
X112213333Y-95853809D01*
X112165714Y-96044285D01*
X112118095Y-96139523D01*
X112022857Y-96234761D01*
X111880000Y-96282380D01*
X111641904Y-96282380D01*
X113165714Y-96282380D02*
X112594285Y-96282380D01*
X112880000Y-96282380D02*
X112880000Y-95282380D01*
X112784761Y-95425238D01*
X112689523Y-95520476D01*
X112594285Y-95568095D01*
X114281904Y-102802380D02*
X114281904Y-101802380D01*
X114520000Y-101802380D01*
X114662857Y-101850000D01*
X114758095Y-101945238D01*
X114805714Y-102040476D01*
X114853333Y-102230952D01*
X114853333Y-102373809D01*
X114805714Y-102564285D01*
X114758095Y-102659523D01*
X114662857Y-102754761D01*
X114520000Y-102802380D01*
X114281904Y-102802380D01*
X115234285Y-101897619D02*
X115281904Y-101850000D01*
X115377142Y-101802380D01*
X115615238Y-101802380D01*
X115710476Y-101850000D01*
X115758095Y-101897619D01*
X115805714Y-101992857D01*
X115805714Y-102088095D01*
X115758095Y-102230952D01*
X115186666Y-102802380D01*
X115805714Y-102802380D01*
X111671904Y-102812380D02*
X111671904Y-101812380D01*
X111910000Y-101812380D01*
X112052857Y-101860000D01*
X112148095Y-101955238D01*
X112195714Y-102050476D01*
X112243333Y-102240952D01*
X112243333Y-102383809D01*
X112195714Y-102574285D01*
X112148095Y-102669523D01*
X112052857Y-102764761D01*
X111910000Y-102812380D01*
X111671904Y-102812380D01*
X112862380Y-101812380D02*
X112957619Y-101812380D01*
X113052857Y-101860000D01*
X113100476Y-101907619D01*
X113148095Y-102002857D01*
X113195714Y-102193333D01*
X113195714Y-102431428D01*
X113148095Y-102621904D01*
X113100476Y-102717142D01*
X113052857Y-102764761D01*
X112957619Y-102812380D01*
X112862380Y-102812380D01*
X112767142Y-102764761D01*
X112719523Y-102717142D01*
X112671904Y-102621904D01*
X112624285Y-102431428D01*
X112624285Y-102193333D01*
X112671904Y-102002857D01*
X112719523Y-101907619D01*
X112767142Y-101860000D01*
X112862380Y-101812380D01*
X109125714Y-102792380D02*
X109125714Y-101792380D01*
X109363809Y-101792380D01*
X109506666Y-101840000D01*
X109601904Y-101935238D01*
X109649523Y-102030476D01*
X109697142Y-102220952D01*
X109697142Y-102363809D01*
X109649523Y-102554285D01*
X109601904Y-102649523D01*
X109506666Y-102744761D01*
X109363809Y-102792380D01*
X109125714Y-102792380D01*
X110125714Y-102268571D02*
X110459047Y-102268571D01*
X110601904Y-102792380D02*
X110125714Y-102792380D01*
X110125714Y-101792380D01*
X110601904Y-101792380D01*
X110101904Y-95300000D02*
X110006666Y-95252380D01*
X109863809Y-95252380D01*
X109720952Y-95300000D01*
X109625714Y-95395238D01*
X109578095Y-95490476D01*
X109530476Y-95680952D01*
X109530476Y-95823809D01*
X109578095Y-96014285D01*
X109625714Y-96109523D01*
X109720952Y-96204761D01*
X109863809Y-96252380D01*
X109959047Y-96252380D01*
X110101904Y-96204761D01*
X110149523Y-96157142D01*
X110149523Y-95823809D01*
X109959047Y-95823809D01*
X106618095Y-96222380D02*
X106618095Y-95222380D01*
X106618095Y-95698571D02*
X107189523Y-95698571D01*
X107189523Y-96222380D02*
X107189523Y-95222380D01*
X107618095Y-96174761D02*
X107760952Y-96222380D01*
X107999047Y-96222380D01*
X108094285Y-96174761D01*
X108141904Y-96127142D01*
X108189523Y-96031904D01*
X108189523Y-95936666D01*
X108141904Y-95841428D01*
X108094285Y-95793809D01*
X107999047Y-95746190D01*
X107808571Y-95698571D01*
X107713333Y-95650952D01*
X107665714Y-95603333D01*
X107618095Y-95508095D01*
X107618095Y-95412857D01*
X107665714Y-95317619D01*
X107713333Y-95270000D01*
X107808571Y-95222380D01*
X108046666Y-95222380D01*
X108189523Y-95270000D01*
X106510476Y-101832380D02*
X106843809Y-102832380D01*
X107177142Y-101832380D01*
X107462857Y-102784761D02*
X107605714Y-102832380D01*
X107843809Y-102832380D01*
X107939047Y-102784761D01*
X107986666Y-102737142D01*
X108034285Y-102641904D01*
X108034285Y-102546666D01*
X107986666Y-102451428D01*
X107939047Y-102403809D01*
X107843809Y-102356190D01*
X107653333Y-102308571D01*
X107558095Y-102260952D01*
X107510476Y-102213333D01*
X107462857Y-102118095D01*
X107462857Y-102022857D01*
X107510476Y-101927619D01*
X107558095Y-101880000D01*
X107653333Y-101832380D01*
X107891428Y-101832380D01*
X108034285Y-101880000D01*
X105011904Y-95300000D02*
X104916666Y-95252380D01*
X104773809Y-95252380D01*
X104630952Y-95300000D01*
X104535714Y-95395238D01*
X104488095Y-95490476D01*
X104440476Y-95680952D01*
X104440476Y-95823809D01*
X104488095Y-96014285D01*
X104535714Y-96109523D01*
X104630952Y-96204761D01*
X104773809Y-96252380D01*
X104869047Y-96252380D01*
X105011904Y-96204761D01*
X105059523Y-96157142D01*
X105059523Y-95823809D01*
X104869047Y-95823809D01*
X102551904Y-95330000D02*
X102456666Y-95282380D01*
X102313809Y-95282380D01*
X102170952Y-95330000D01*
X102075714Y-95425238D01*
X102028095Y-95520476D01*
X101980476Y-95710952D01*
X101980476Y-95853809D01*
X102028095Y-96044285D01*
X102075714Y-96139523D01*
X102170952Y-96234761D01*
X102313809Y-96282380D01*
X102409047Y-96282380D01*
X102551904Y-96234761D01*
X102599523Y-96187142D01*
X102599523Y-95853809D01*
X102409047Y-95853809D01*
X103742380Y-101842380D02*
X104361428Y-101842380D01*
X104028095Y-102223333D01*
X104170952Y-102223333D01*
X104266190Y-102270952D01*
X104313809Y-102318571D01*
X104361428Y-102413809D01*
X104361428Y-102651904D01*
X104313809Y-102747142D01*
X104266190Y-102794761D01*
X104170952Y-102842380D01*
X103885238Y-102842380D01*
X103790000Y-102794761D01*
X103742380Y-102747142D01*
X104790000Y-102747142D02*
X104837619Y-102794761D01*
X104790000Y-102842380D01*
X104742380Y-102794761D01*
X104790000Y-102747142D01*
X104790000Y-102842380D01*
X105170952Y-101842380D02*
X105790000Y-101842380D01*
X105456666Y-102223333D01*
X105599523Y-102223333D01*
X105694761Y-102270952D01*
X105742380Y-102318571D01*
X105790000Y-102413809D01*
X105790000Y-102651904D01*
X105742380Y-102747142D01*
X105694761Y-102794761D01*
X105599523Y-102842380D01*
X105313809Y-102842380D01*
X105218571Y-102794761D01*
X105170952Y-102747142D01*
X102079523Y-101802380D02*
X101603333Y-101802380D01*
X101555714Y-102278571D01*
X101603333Y-102230952D01*
X101698571Y-102183333D01*
X101936666Y-102183333D01*
X102031904Y-102230952D01*
X102079523Y-102278571D01*
X102127142Y-102373809D01*
X102127142Y-102611904D01*
X102079523Y-102707142D01*
X102031904Y-102754761D01*
X101936666Y-102802380D01*
X101698571Y-102802380D01*
X101603333Y-102754761D01*
X101555714Y-102707142D01*
X102412857Y-101802380D02*
X102746190Y-102802380D01*
X103079523Y-101802380D01*
D11*
G04 #@! TO.C,J2*
X149500000Y-107500000D02*
X147000000Y-107500000D01*
X147000000Y-107500000D02*
X147000000Y-107000000D01*
X147000000Y-107000000D02*
X152500000Y-107000000D01*
X152500000Y-107000000D02*
X152500000Y-107500000D01*
X152500000Y-122500000D02*
X152500000Y-123000000D01*
X152500000Y-123000000D02*
X147000000Y-123000000D01*
X147000000Y-123000000D02*
X147000000Y-122500000D01*
X147000000Y-122500000D02*
X149500000Y-122500000D01*
X152500000Y-107500000D02*
X152500000Y-122500000D01*
X152500000Y-122500000D02*
X149500000Y-122500000D01*
X149500000Y-122500000D02*
X149500000Y-107500000D01*
X149500000Y-107500000D02*
X152500000Y-107500000D01*
D12*
G04 #@! TO.C,C1*
X97577240Y-120100560D02*
X99426360Y-120100560D01*
X99426360Y-121299440D02*
X97577240Y-121299440D01*
D13*
X100150260Y-119450320D02*
X100150260Y-121949680D01*
X100150260Y-121949680D02*
X96853340Y-121949680D01*
X96853340Y-119450320D02*
X96853340Y-121949680D01*
X100150260Y-119450320D02*
X96853340Y-119450320D01*
X98003960Y-120052300D02*
X98003960Y-121347700D01*
X98003960Y-121347700D02*
X97503580Y-121347700D01*
X97503580Y-120052300D02*
X97503580Y-121347700D01*
X98003960Y-120052300D02*
X97503580Y-120052300D01*
X99500020Y-120052300D02*
X99500020Y-121347700D01*
X99500020Y-121347700D02*
X98999640Y-121347700D01*
X98999640Y-120052300D02*
X98999640Y-121347700D01*
X99500020Y-120052300D02*
X98999640Y-120052300D01*
G04 #@! TO.C,C2*
X101301220Y-115202440D02*
X101301220Y-115550420D01*
X101301220Y-115550420D02*
X102098780Y-115550420D01*
X102098780Y-115202440D02*
X102098780Y-115550420D01*
X101301220Y-115202440D02*
X102098780Y-115202440D01*
X101301220Y-116449580D02*
X101301220Y-116797560D01*
X101301220Y-116797560D02*
X102098780Y-116797560D01*
X102098780Y-116449580D02*
X102098780Y-116797560D01*
X101301220Y-116449580D02*
X102098780Y-116449580D01*
X100902440Y-114600460D02*
X100902440Y-117399540D01*
X100902440Y-117399540D02*
X102497560Y-117399540D01*
X102497560Y-114600460D02*
X102497560Y-117399540D01*
X100902440Y-114600460D02*
X102497560Y-114600460D01*
D12*
X102047980Y-115276100D02*
X102047980Y-116723900D01*
X101352020Y-116723900D02*
X101352020Y-115276100D01*
D13*
G04 #@! TO.C,C3*
X97401780Y-113447700D02*
X97902160Y-113447700D01*
X97902160Y-113447700D02*
X97902160Y-112152300D01*
X97401780Y-112152300D02*
X97902160Y-112152300D01*
X97401780Y-113447700D02*
X97401780Y-112152300D01*
X98897840Y-113447700D02*
X99398220Y-113447700D01*
X99398220Y-113447700D02*
X99398220Y-112152300D01*
X98897840Y-112152300D02*
X99398220Y-112152300D01*
X98897840Y-113447700D02*
X98897840Y-112152300D01*
X96751540Y-114049680D02*
X100048460Y-114049680D01*
X100048460Y-114049680D02*
X100048460Y-111550320D01*
X96751540Y-111550320D02*
X100048460Y-111550320D01*
X96751540Y-114049680D02*
X96751540Y-111550320D01*
D12*
X97475440Y-112200560D02*
X99324560Y-112200560D01*
X99324560Y-113399440D02*
X97475440Y-113399440D01*
G04 #@! TO.C,C4*
X110876100Y-117952020D02*
X112323900Y-117952020D01*
X112323900Y-118647980D02*
X110876100Y-118647980D01*
D13*
X112999540Y-117502440D02*
X112999540Y-119097560D01*
X112999540Y-119097560D02*
X110200460Y-119097560D01*
X110200460Y-117502440D02*
X110200460Y-119097560D01*
X112999540Y-117502440D02*
X110200460Y-117502440D01*
X111150420Y-117901220D02*
X111150420Y-118698780D01*
X111150420Y-118698780D02*
X110802440Y-118698780D01*
X110802440Y-117901220D02*
X110802440Y-118698780D01*
X111150420Y-117901220D02*
X110802440Y-117901220D01*
X112397560Y-117901220D02*
X112397560Y-118698780D01*
X112397560Y-118698780D02*
X112049580Y-118698780D01*
X112049580Y-117901220D02*
X112049580Y-118698780D01*
X112397560Y-117901220D02*
X112049580Y-117901220D01*
G04 #@! TO.C,C5*
X123607560Y-127411220D02*
X123259580Y-127411220D01*
X123259580Y-127411220D02*
X123259580Y-128208780D01*
X123607560Y-128208780D02*
X123259580Y-128208780D01*
X123607560Y-127411220D02*
X123607560Y-128208780D01*
X122360420Y-127411220D02*
X122012440Y-127411220D01*
X122012440Y-127411220D02*
X122012440Y-128208780D01*
X122360420Y-128208780D02*
X122012440Y-128208780D01*
X122360420Y-127411220D02*
X122360420Y-128208780D01*
X124209540Y-127012440D02*
X121410460Y-127012440D01*
X121410460Y-127012440D02*
X121410460Y-128607560D01*
X124209540Y-128607560D02*
X121410460Y-128607560D01*
X124209540Y-127012440D02*
X124209540Y-128607560D01*
D12*
X123533900Y-128157980D02*
X122086100Y-128157980D01*
X122086100Y-127462020D02*
X123533900Y-127462020D01*
G04 #@! TO.C,C6*
X134597900Y-118347980D02*
X133150100Y-118347980D01*
X133150100Y-117652020D02*
X134597900Y-117652020D01*
D13*
X132474460Y-118797560D02*
X132474460Y-117202440D01*
X132474460Y-117202440D02*
X135273540Y-117202440D01*
X135273540Y-118797560D02*
X135273540Y-117202440D01*
X132474460Y-118797560D02*
X135273540Y-118797560D01*
X134323580Y-118398780D02*
X134323580Y-117601220D01*
X134323580Y-117601220D02*
X134671560Y-117601220D01*
X134671560Y-118398780D02*
X134671560Y-117601220D01*
X134323580Y-118398780D02*
X134671560Y-118398780D01*
X133076440Y-118398780D02*
X133076440Y-117601220D01*
X133076440Y-117601220D02*
X133424420Y-117601220D01*
X133424420Y-118398780D02*
X133424420Y-117601220D01*
X133076440Y-118398780D02*
X133424420Y-118398780D01*
G04 #@! TO.C,C7*
X133102440Y-116398780D02*
X133450420Y-116398780D01*
X133450420Y-116398780D02*
X133450420Y-115601220D01*
X133102440Y-115601220D02*
X133450420Y-115601220D01*
X133102440Y-116398780D02*
X133102440Y-115601220D01*
X134349580Y-116398780D02*
X134697560Y-116398780D01*
X134697560Y-116398780D02*
X134697560Y-115601220D01*
X134349580Y-115601220D02*
X134697560Y-115601220D01*
X134349580Y-116398780D02*
X134349580Y-115601220D01*
X132500460Y-116797560D02*
X135299540Y-116797560D01*
X135299540Y-116797560D02*
X135299540Y-115202440D01*
X132500460Y-115202440D02*
X135299540Y-115202440D01*
X132500460Y-116797560D02*
X132500460Y-115202440D01*
D12*
X133176100Y-115652020D02*
X134623900Y-115652020D01*
X134623900Y-116347980D02*
X133176100Y-116347980D01*
D13*
G04 #@! TO.C,J1*
X102026000Y-100524000D02*
X102534000Y-100524000D01*
X102534000Y-100524000D02*
X102534000Y-100016000D01*
X102026000Y-100016000D02*
X102534000Y-100016000D01*
X102026000Y-100524000D02*
X102026000Y-100016000D01*
X102026000Y-97984000D02*
X102534000Y-97984000D01*
X102534000Y-97984000D02*
X102534000Y-97476000D01*
X102026000Y-97476000D02*
X102534000Y-97476000D01*
X102026000Y-97984000D02*
X102026000Y-97476000D01*
X104566000Y-97984000D02*
X105076540Y-97984000D01*
X105076540Y-97984000D02*
X105076540Y-97476000D01*
X104566000Y-97476000D02*
X105076540Y-97476000D01*
X104566000Y-97984000D02*
X104566000Y-97476000D01*
X104566000Y-100524000D02*
X105076540Y-100524000D01*
X105076540Y-100524000D02*
X105076540Y-100016000D01*
X104566000Y-100016000D02*
X105076540Y-100016000D01*
X104566000Y-100524000D02*
X104566000Y-100016000D01*
X107106000Y-97984000D02*
X107614000Y-97984000D01*
X107614000Y-97984000D02*
X107614000Y-97476000D01*
X107106000Y-97476000D02*
X107614000Y-97476000D01*
X107106000Y-97984000D02*
X107106000Y-97476000D01*
X107106000Y-100524000D02*
X107614000Y-100524000D01*
X107614000Y-100524000D02*
X107614000Y-100016000D01*
X107106000Y-100016000D02*
X107614000Y-100016000D01*
X107106000Y-100524000D02*
X107106000Y-100016000D01*
X109646000Y-97984000D02*
X110154000Y-97984000D01*
X110154000Y-97984000D02*
X110154000Y-97476000D01*
X109646000Y-97476000D02*
X110154000Y-97476000D01*
X109646000Y-97984000D02*
X109646000Y-97476000D01*
X112186000Y-97984000D02*
X112694000Y-97984000D01*
X112694000Y-97984000D02*
X112694000Y-97476000D01*
X112186000Y-97476000D02*
X112694000Y-97476000D01*
X112186000Y-97984000D02*
X112186000Y-97476000D01*
X114726000Y-97984000D02*
X115234000Y-97984000D01*
X115234000Y-97984000D02*
X115234000Y-97476000D01*
X114726000Y-97476000D02*
X115234000Y-97476000D01*
X114726000Y-97984000D02*
X114726000Y-97476000D01*
X109646000Y-100524000D02*
X110154000Y-100524000D01*
X110154000Y-100524000D02*
X110154000Y-100016000D01*
X109646000Y-100016000D02*
X110154000Y-100016000D01*
X109646000Y-100524000D02*
X109646000Y-100016000D01*
X112186000Y-100524000D02*
X112694000Y-100524000D01*
X112694000Y-100524000D02*
X112694000Y-100016000D01*
X112186000Y-100016000D02*
X112694000Y-100016000D01*
X112186000Y-100524000D02*
X112186000Y-100016000D01*
X114726000Y-100524000D02*
X115234000Y-100524000D01*
X115234000Y-100524000D02*
X115234000Y-100016000D01*
X114726000Y-100016000D02*
X115234000Y-100016000D01*
X114726000Y-100524000D02*
X114726000Y-100016000D01*
X117266000Y-97984000D02*
X117774000Y-97984000D01*
X117774000Y-97984000D02*
X117774000Y-97476000D01*
X117266000Y-97476000D02*
X117774000Y-97476000D01*
X117266000Y-97984000D02*
X117266000Y-97476000D01*
X117266000Y-100524000D02*
X117774000Y-100524000D01*
X117774000Y-100524000D02*
X117774000Y-100016000D01*
X117266000Y-100016000D02*
X117774000Y-100016000D01*
X117266000Y-100524000D02*
X117266000Y-100016000D01*
X119806000Y-97984000D02*
X120314000Y-97984000D01*
X120314000Y-97984000D02*
X120314000Y-97476000D01*
X119806000Y-97476000D02*
X120314000Y-97476000D01*
X119806000Y-97984000D02*
X119806000Y-97476000D01*
X119806000Y-100524000D02*
X120314000Y-100524000D01*
X120314000Y-100524000D02*
X120314000Y-100016000D01*
X119806000Y-100016000D02*
X120314000Y-100016000D01*
X119806000Y-100524000D02*
X119806000Y-100016000D01*
X122346000Y-97984000D02*
X122854000Y-97984000D01*
X122854000Y-97984000D02*
X122854000Y-97476000D01*
X122346000Y-97476000D02*
X122854000Y-97476000D01*
X122346000Y-97984000D02*
X122346000Y-97476000D01*
X122346000Y-100524000D02*
X122854000Y-100524000D01*
X122854000Y-100524000D02*
X122854000Y-100016000D01*
X122346000Y-100016000D02*
X122854000Y-100016000D01*
X122346000Y-100524000D02*
X122346000Y-100016000D01*
X124886000Y-97984000D02*
X125394000Y-97984000D01*
X125394000Y-97984000D02*
X125394000Y-97476000D01*
X124886000Y-97476000D02*
X125394000Y-97476000D01*
X124886000Y-97984000D02*
X124886000Y-97476000D01*
X124886000Y-100524000D02*
X125394000Y-100524000D01*
X125394000Y-100524000D02*
X125394000Y-100016000D01*
X124886000Y-100016000D02*
X125394000Y-100016000D01*
X124886000Y-100524000D02*
X124886000Y-100016000D01*
X127426000Y-97984000D02*
X127934000Y-97984000D01*
X127934000Y-97984000D02*
X127934000Y-97476000D01*
X127426000Y-97476000D02*
X127934000Y-97476000D01*
X127426000Y-97984000D02*
X127426000Y-97476000D01*
X127426000Y-100524000D02*
X127934000Y-100524000D01*
X127934000Y-100524000D02*
X127934000Y-100016000D01*
X127426000Y-100016000D02*
X127934000Y-100016000D01*
X127426000Y-100524000D02*
X127426000Y-100016000D01*
X129966000Y-97984000D02*
X130474000Y-97984000D01*
X130474000Y-97984000D02*
X130474000Y-97476000D01*
X129966000Y-97476000D02*
X130474000Y-97476000D01*
X129966000Y-97984000D02*
X129966000Y-97476000D01*
X129966000Y-100524000D02*
X130474000Y-100524000D01*
X130474000Y-100524000D02*
X130474000Y-100016000D01*
X129966000Y-100016000D02*
X130474000Y-100016000D01*
X129966000Y-100524000D02*
X129966000Y-100016000D01*
X132506000Y-97984000D02*
X133014000Y-97984000D01*
X133014000Y-97984000D02*
X133014000Y-97476000D01*
X132506000Y-97476000D02*
X133014000Y-97476000D01*
X132506000Y-97984000D02*
X132506000Y-97476000D01*
X132506000Y-100524000D02*
X133014000Y-100524000D01*
X133014000Y-100524000D02*
X133014000Y-100016000D01*
X132506000Y-100016000D02*
X133014000Y-100016000D01*
X132506000Y-100524000D02*
X132506000Y-100016000D01*
X135046000Y-97984000D02*
X135554000Y-97984000D01*
X135554000Y-97984000D02*
X135554000Y-97476000D01*
X135046000Y-97476000D02*
X135554000Y-97476000D01*
X135046000Y-97984000D02*
X135046000Y-97476000D01*
X135046000Y-100524000D02*
X135554000Y-100524000D01*
X135554000Y-100524000D02*
X135554000Y-100016000D01*
X135046000Y-100016000D02*
X135554000Y-100016000D01*
X135046000Y-100524000D02*
X135046000Y-100016000D01*
X137586000Y-97984000D02*
X138094000Y-97984000D01*
X138094000Y-97984000D02*
X138094000Y-97476000D01*
X137586000Y-97476000D02*
X138094000Y-97476000D01*
X137586000Y-97984000D02*
X137586000Y-97476000D01*
X137586000Y-100524000D02*
X138094000Y-100524000D01*
X138094000Y-100524000D02*
X138094000Y-100016000D01*
X137586000Y-100016000D02*
X138094000Y-100016000D01*
X137586000Y-100524000D02*
X137586000Y-100016000D01*
X140123460Y-97984000D02*
X140634000Y-97984000D01*
X140634000Y-97984000D02*
X140634000Y-97476000D01*
X140123460Y-97476000D02*
X140634000Y-97476000D01*
X140123460Y-97984000D02*
X140123460Y-97476000D01*
X140123460Y-100524000D02*
X140634000Y-100524000D01*
X140634000Y-100524000D02*
X140634000Y-100016000D01*
X140123460Y-100016000D02*
X140634000Y-100016000D01*
X140123460Y-100524000D02*
X140123460Y-100016000D01*
X142666000Y-97984000D02*
X143174000Y-97984000D01*
X143174000Y-97984000D02*
X143174000Y-97476000D01*
X142666000Y-97476000D02*
X143174000Y-97476000D01*
X142666000Y-97984000D02*
X142666000Y-97476000D01*
X142666000Y-100524000D02*
X143174000Y-100524000D01*
X143174000Y-100524000D02*
X143174000Y-100016000D01*
X142666000Y-100016000D02*
X143174000Y-100016000D01*
X142666000Y-100524000D02*
X142666000Y-100016000D01*
D14*
X101010000Y-100905000D02*
X101645000Y-101540000D01*
X101645000Y-101540000D02*
X102915000Y-101540000D01*
X102915000Y-101540000D02*
X103550000Y-100905000D01*
X103550000Y-100905000D02*
X104185000Y-101540000D01*
X104185000Y-101540000D02*
X105455000Y-101540000D01*
X105455000Y-101540000D02*
X106090000Y-100905000D01*
X106090000Y-100905000D02*
X106725000Y-101540000D01*
X106725000Y-101540000D02*
X107995000Y-101540000D01*
X107995000Y-101540000D02*
X108630000Y-100905000D01*
X108630000Y-100905000D02*
X109265000Y-101540000D01*
X109265000Y-101540000D02*
X110535000Y-101540000D01*
X110535000Y-101540000D02*
X111170000Y-100905000D01*
X111170000Y-100905000D02*
X111805000Y-101540000D01*
X111805000Y-101540000D02*
X113075000Y-101540000D01*
X113075000Y-101540000D02*
X113710000Y-100905000D01*
X113710000Y-100905000D02*
X114345000Y-101540000D01*
X114345000Y-101540000D02*
X115615000Y-101540000D01*
X115615000Y-101540000D02*
X116250000Y-100905000D01*
X101010000Y-100905000D02*
X101010000Y-97095000D01*
X101010000Y-97095000D02*
X101645000Y-96460000D01*
X101645000Y-96460000D02*
X102915000Y-96460000D01*
X102915000Y-96460000D02*
X103550000Y-97095000D01*
X103550000Y-97095000D02*
X104185000Y-96460000D01*
X104185000Y-96460000D02*
X105455000Y-96460000D01*
X105455000Y-96460000D02*
X106090000Y-97095000D01*
X106090000Y-97095000D02*
X106725000Y-96460000D01*
X106725000Y-96460000D02*
X107995000Y-96460000D01*
X107995000Y-96460000D02*
X108630000Y-97095000D01*
X108630000Y-97095000D02*
X109265000Y-96460000D01*
X109265000Y-96460000D02*
X110535000Y-96460000D01*
X110535000Y-96460000D02*
X111170000Y-97095000D01*
X111170000Y-97095000D02*
X111805000Y-96460000D01*
X111805000Y-96460000D02*
X113075000Y-96460000D01*
X113075000Y-96460000D02*
X113710000Y-97095000D01*
X113710000Y-97095000D02*
X114345000Y-96460000D01*
X114345000Y-96460000D02*
X115615000Y-96460000D01*
X115615000Y-96460000D02*
X116250000Y-97095000D01*
X116250000Y-97095000D02*
X116885000Y-96460000D01*
X116885000Y-96460000D02*
X118155000Y-96460000D01*
X118155000Y-96460000D02*
X118790000Y-97095000D01*
X118790000Y-97095000D02*
X119425000Y-96460000D01*
X119425000Y-96460000D02*
X120695000Y-96460000D01*
X120695000Y-96460000D02*
X121330000Y-97095000D01*
X121330000Y-97095000D02*
X121965000Y-96460000D01*
X121965000Y-96460000D02*
X123235000Y-96460000D01*
X123235000Y-96460000D02*
X123870000Y-97095000D01*
X123870000Y-97095000D02*
X124505000Y-96460000D01*
X124505000Y-96460000D02*
X125775000Y-96460000D01*
X125775000Y-96460000D02*
X126410000Y-97095000D01*
X126410000Y-97095000D02*
X127045000Y-96460000D01*
X127045000Y-96460000D02*
X128315000Y-96460000D01*
X128315000Y-96460000D02*
X128950000Y-97095000D01*
X128950000Y-97095000D02*
X129585000Y-96460000D01*
X129585000Y-96460000D02*
X130855000Y-96460000D01*
X131490000Y-97095000D02*
X130855000Y-96460000D01*
X131490000Y-97095000D02*
X132125000Y-96460000D01*
X133395000Y-96460000D02*
X132125000Y-96460000D01*
X133395000Y-96460000D02*
X134030000Y-97095000D01*
X134030000Y-97095000D02*
X134665000Y-96460000D01*
X135935000Y-96460000D02*
X134665000Y-96460000D01*
X135935000Y-96460000D02*
X136570000Y-97095000D01*
X136570000Y-97095000D02*
X137205000Y-96460000D01*
X138475000Y-96460000D02*
X137205000Y-96460000D01*
X138475000Y-96460000D02*
X139110000Y-97095000D01*
X139110000Y-97095000D02*
X139745000Y-96460000D01*
X141015000Y-96460000D02*
X139745000Y-96460000D01*
X141015000Y-96460000D02*
X141650000Y-97095000D01*
X141650000Y-97095000D02*
X142285000Y-96460000D01*
X143555000Y-96460000D02*
X142285000Y-96460000D01*
X143555000Y-96460000D02*
X144190000Y-97095000D01*
X144190000Y-100905000D02*
X143555000Y-101540000D01*
X143555000Y-101540000D02*
X142285000Y-101540000D01*
X141650000Y-100905000D02*
X142285000Y-101540000D01*
X141650000Y-100905000D02*
X141015000Y-101540000D01*
X139745000Y-101540000D02*
X141015000Y-101540000D01*
X139745000Y-101540000D02*
X139110000Y-100905000D01*
X139110000Y-100905000D02*
X138475000Y-101540000D01*
X137205000Y-101540000D02*
X138475000Y-101540000D01*
X137205000Y-101540000D02*
X136570000Y-100905000D01*
X136570000Y-100905000D02*
X135935000Y-101540000D01*
X135935000Y-101540000D02*
X134665000Y-101540000D01*
X134030000Y-100905000D02*
X134665000Y-101540000D01*
X134030000Y-100905000D02*
X133395000Y-101540000D01*
X133395000Y-101540000D02*
X132125000Y-101540000D01*
X131490000Y-100905000D02*
X132125000Y-101540000D01*
X131490000Y-100905000D02*
X130855000Y-101540000D01*
X130855000Y-101540000D02*
X129585000Y-101540000D01*
X128950000Y-100905000D02*
X129585000Y-101540000D01*
X128950000Y-100905000D02*
X128315000Y-101540000D01*
X128315000Y-101540000D02*
X127045000Y-101540000D01*
X126410000Y-100905000D02*
X127045000Y-101540000D01*
X126410000Y-100905000D02*
X125775000Y-101540000D01*
X125775000Y-101540000D02*
X124505000Y-101540000D01*
X123870000Y-100905000D02*
X124505000Y-101540000D01*
X123870000Y-100905000D02*
X123235000Y-101540000D01*
X123235000Y-101540000D02*
X121965000Y-101540000D01*
X121330000Y-100905000D02*
X121965000Y-101540000D01*
X121330000Y-100905000D02*
X120695000Y-101540000D01*
X120695000Y-101540000D02*
X119425000Y-101540000D01*
X118790000Y-100905000D02*
X119425000Y-101540000D01*
X118790000Y-100905000D02*
X118155000Y-101540000D01*
X118155000Y-101540000D02*
X116885000Y-101540000D01*
X116250000Y-100905000D02*
X116885000Y-101540000D01*
X103550000Y-97095000D02*
X103550000Y-100905000D01*
X106090000Y-97095000D02*
X106090000Y-100905000D01*
X108630000Y-97095000D02*
X108630000Y-100905000D01*
X111170000Y-97095000D02*
X111170000Y-100905000D01*
X113710000Y-97095000D02*
X113710000Y-100905000D01*
X116250000Y-97095000D02*
X116250000Y-100905000D01*
X118790000Y-97095000D02*
X118790000Y-100905000D01*
X121330000Y-97095000D02*
X121330000Y-100905000D01*
X123870000Y-97095000D02*
X123870000Y-100905000D01*
X126410000Y-97095000D02*
X126410000Y-100905000D01*
X128950000Y-97095000D02*
X128950000Y-100905000D01*
X131490000Y-97095000D02*
X131490000Y-100905000D01*
X134030000Y-97095000D02*
X134030000Y-100905000D01*
X136570000Y-97095000D02*
X136570000Y-100905000D01*
X139110000Y-97095000D02*
X139110000Y-100905000D01*
X141650000Y-97095000D02*
X141650000Y-100905000D01*
X144190000Y-97095000D02*
X144190000Y-100905000D01*
D13*
G04 #@! TO.C,L1*
X97401780Y-110647700D02*
X97902160Y-110647700D01*
X97902160Y-110647700D02*
X97902160Y-109352300D01*
X97401780Y-109352300D02*
X97902160Y-109352300D01*
X97401780Y-110647700D02*
X97401780Y-109352300D01*
X98897840Y-110647700D02*
X99398220Y-110647700D01*
X99398220Y-110647700D02*
X99398220Y-109352300D01*
X98897840Y-109352300D02*
X99398220Y-109352300D01*
X98897840Y-110647700D02*
X98897840Y-109352300D01*
X96751540Y-111249680D02*
X100048460Y-111249680D01*
X100048460Y-111249680D02*
X100048460Y-108750320D01*
X96751540Y-108750320D02*
X100048460Y-108750320D01*
X96751540Y-111249680D02*
X96751540Y-108750320D01*
D12*
X97475440Y-109400560D02*
X99324560Y-109400560D01*
X99324560Y-110599440D02*
X97475440Y-110599440D01*
G04 #@! TO.C,R8*
X125420100Y-127452020D02*
X126867900Y-127452020D01*
X126867900Y-128147980D02*
X125420100Y-128147980D01*
D13*
X127543540Y-127002440D02*
X127543540Y-128597560D01*
X127543540Y-128597560D02*
X124744460Y-128597560D01*
X124744460Y-127002440D02*
X124744460Y-128597560D01*
X127543540Y-127002440D02*
X124744460Y-127002440D01*
X125694420Y-127401220D02*
X125694420Y-128198780D01*
X125694420Y-128198780D02*
X125346440Y-128198780D01*
X125346440Y-127401220D02*
X125346440Y-128198780D01*
X125694420Y-127401220D02*
X125346440Y-127401220D01*
X126941560Y-127401220D02*
X126941560Y-128198780D01*
X126941560Y-128198780D02*
X126593580Y-128198780D01*
X126593580Y-127401220D02*
X126593580Y-128198780D01*
X126941560Y-127401220D02*
X126593580Y-127401220D01*
D15*
G04 #@! TO.C,U1*
X97000000Y-118200000D02*
G75*
G03X97000000Y-118200000I-150000J0D01*
G01*
D16*
X98150000Y-116000000D02*
X99050000Y-116000000D01*
X100050000Y-116000000D02*
X100050000Y-117600000D01*
X97150000Y-116000000D02*
X97150000Y-117600000D01*
D11*
G04 #@! TO.C,U2*
X115581445Y-118200000D02*
X116288552Y-118907107D01*
X122900000Y-110881445D02*
X123660140Y-111641585D01*
X130218555Y-118200000D02*
X129458415Y-117439860D01*
X122900000Y-125518555D02*
X122139860Y-124758415D01*
X115581445Y-118200000D02*
X116341585Y-117439860D01*
X122900000Y-125518555D02*
X123660140Y-124758415D01*
X130218555Y-118200000D02*
X129458415Y-118960140D01*
X122900000Y-110881445D02*
X122139860Y-111641585D01*
X116288552Y-118907107D02*
X115563767Y-119631891D01*
D13*
G04 #@! TO.C,R9*
X103998780Y-116823560D02*
X103998780Y-116475580D01*
X103998780Y-116475580D02*
X103201220Y-116475580D01*
X103201220Y-116823560D02*
X103201220Y-116475580D01*
X103998780Y-116823560D02*
X103201220Y-116823560D01*
X103998780Y-115576420D02*
X103998780Y-115228440D01*
X103998780Y-115228440D02*
X103201220Y-115228440D01*
X103201220Y-115576420D02*
X103201220Y-115228440D01*
X103998780Y-115576420D02*
X103201220Y-115576420D01*
X104397560Y-117425540D02*
X104397560Y-114626460D01*
X104397560Y-114626460D02*
X102802440Y-114626460D01*
X102802440Y-117425540D02*
X102802440Y-114626460D01*
X104397560Y-117425540D02*
X102802440Y-117425540D01*
D12*
X103252020Y-116749900D02*
X103252020Y-115302100D01*
X103947980Y-115302100D02*
X103947980Y-116749900D01*
D13*
G04 #@! TO.C,D1*
X105798780Y-116797560D02*
X105798780Y-116449580D01*
X105798780Y-116449580D02*
X105001220Y-116449580D01*
X105001220Y-116797560D02*
X105001220Y-116449580D01*
X105798780Y-116797560D02*
X105001220Y-116797560D01*
X105798780Y-115550420D02*
X105798780Y-115202440D01*
X105798780Y-115202440D02*
X105001220Y-115202440D01*
X105001220Y-115550420D02*
X105001220Y-115202440D01*
X105798780Y-115550420D02*
X105001220Y-115550420D01*
X106197560Y-117399540D02*
X106197560Y-114600460D01*
X106197560Y-114600460D02*
X104602440Y-114600460D01*
X104602440Y-117399540D02*
X104602440Y-114600460D01*
X106197560Y-117399540D02*
X104602440Y-117399540D01*
D17*
X105082500Y-115682500D02*
X105717500Y-115682500D01*
X105400000Y-115682500D02*
X105082500Y-116317500D01*
X105082500Y-116317500D02*
X105717500Y-116317500D01*
X105717500Y-116317500D02*
X105400000Y-115682500D01*
G04 #@! TO.C,J2*
D11*
X147352380Y-106133333D02*
X148066666Y-106133333D01*
X148209523Y-106180952D01*
X148304761Y-106276190D01*
X148352380Y-106419047D01*
X148352380Y-106514285D01*
X147447619Y-105704761D02*
X147400000Y-105657142D01*
X147352380Y-105561904D01*
X147352380Y-105323809D01*
X147400000Y-105228571D01*
X147447619Y-105180952D01*
X147542857Y-105133333D01*
X147638095Y-105133333D01*
X147780952Y-105180952D01*
X148352380Y-105752380D01*
X148352380Y-105133333D01*
G04 #@! TO.C,C1*
D18*
X101030686Y-121062857D02*
X100982305Y-121111238D01*
X100837162Y-121159619D01*
X100740400Y-121159619D01*
X100595258Y-121111238D01*
X100498496Y-121014476D01*
X100450115Y-120917714D01*
X100401734Y-120724190D01*
X100401734Y-120579047D01*
X100450115Y-120385523D01*
X100498496Y-120288761D01*
X100595258Y-120192000D01*
X100740400Y-120143619D01*
X100837162Y-120143619D01*
X100982305Y-120192000D01*
X101030686Y-120240380D01*
X101998305Y-121159619D02*
X101417734Y-121159619D01*
X101708020Y-121159619D02*
X101708020Y-120143619D01*
X101611258Y-120288761D01*
X101514496Y-120385523D01*
X101417734Y-120433904D01*
G04 #@! TO.C,C2*
X102062857Y-118669333D02*
X102111238Y-118717714D01*
X102159619Y-118862857D01*
X102159619Y-118959619D01*
X102111238Y-119104761D01*
X102014476Y-119201523D01*
X101917714Y-119249904D01*
X101724190Y-119298285D01*
X101579047Y-119298285D01*
X101385523Y-119249904D01*
X101288761Y-119201523D01*
X101192000Y-119104761D01*
X101143619Y-118959619D01*
X101143619Y-118862857D01*
X101192000Y-118717714D01*
X101240380Y-118669333D01*
X101240380Y-118282285D02*
X101192000Y-118233904D01*
X101143619Y-118137142D01*
X101143619Y-117895238D01*
X101192000Y-117798476D01*
X101240380Y-117750095D01*
X101337142Y-117701714D01*
X101433904Y-117701714D01*
X101579047Y-117750095D01*
X102159619Y-118330666D01*
X102159619Y-117701714D01*
G04 #@! TO.C,C3*
X101030666Y-113262857D02*
X100982285Y-113311238D01*
X100837142Y-113359619D01*
X100740380Y-113359619D01*
X100595238Y-113311238D01*
X100498476Y-113214476D01*
X100450095Y-113117714D01*
X100401714Y-112924190D01*
X100401714Y-112779047D01*
X100450095Y-112585523D01*
X100498476Y-112488761D01*
X100595238Y-112392000D01*
X100740380Y-112343619D01*
X100837142Y-112343619D01*
X100982285Y-112392000D01*
X101030666Y-112440380D01*
X101369333Y-112343619D02*
X101998285Y-112343619D01*
X101659619Y-112730666D01*
X101804761Y-112730666D01*
X101901523Y-112779047D01*
X101949904Y-112827428D01*
X101998285Y-112924190D01*
X101998285Y-113166095D01*
X101949904Y-113262857D01*
X101901523Y-113311238D01*
X101804761Y-113359619D01*
X101514476Y-113359619D01*
X101417714Y-113311238D01*
X101369333Y-113262857D01*
G04 #@! TO.C,C4*
X111220666Y-120192857D02*
X111172285Y-120241238D01*
X111027142Y-120289619D01*
X110930380Y-120289619D01*
X110785238Y-120241238D01*
X110688476Y-120144476D01*
X110640095Y-120047714D01*
X110591714Y-119854190D01*
X110591714Y-119709047D01*
X110640095Y-119515523D01*
X110688476Y-119418761D01*
X110785238Y-119322000D01*
X110930380Y-119273619D01*
X111027142Y-119273619D01*
X111172285Y-119322000D01*
X111220666Y-119370380D01*
X112091523Y-119612285D02*
X112091523Y-120289619D01*
X111849619Y-119225238D02*
X111607714Y-119950952D01*
X112236666Y-119950952D01*
G04 #@! TO.C,C5*
X120100666Y-128232857D02*
X120052285Y-128281238D01*
X119907142Y-128329619D01*
X119810380Y-128329619D01*
X119665238Y-128281238D01*
X119568476Y-128184476D01*
X119520095Y-128087714D01*
X119471714Y-127894190D01*
X119471714Y-127749047D01*
X119520095Y-127555523D01*
X119568476Y-127458761D01*
X119665238Y-127362000D01*
X119810380Y-127313619D01*
X119907142Y-127313619D01*
X120052285Y-127362000D01*
X120100666Y-127410380D01*
X121019904Y-127313619D02*
X120536095Y-127313619D01*
X120487714Y-127797428D01*
X120536095Y-127749047D01*
X120632857Y-127700666D01*
X120874761Y-127700666D01*
X120971523Y-127749047D01*
X121019904Y-127797428D01*
X121068285Y-127894190D01*
X121068285Y-128136095D01*
X121019904Y-128232857D01*
X120971523Y-128281238D01*
X120874761Y-128329619D01*
X120632857Y-128329619D01*
X120536095Y-128281238D01*
X120487714Y-128232857D01*
G04 #@! TO.C,C6*
X136160666Y-118382857D02*
X136112285Y-118431238D01*
X135967142Y-118479619D01*
X135870380Y-118479619D01*
X135725238Y-118431238D01*
X135628476Y-118334476D01*
X135580095Y-118237714D01*
X135531714Y-118044190D01*
X135531714Y-117899047D01*
X135580095Y-117705523D01*
X135628476Y-117608761D01*
X135725238Y-117512000D01*
X135870380Y-117463619D01*
X135967142Y-117463619D01*
X136112285Y-117512000D01*
X136160666Y-117560380D01*
X137031523Y-117463619D02*
X136838000Y-117463619D01*
X136741238Y-117512000D01*
X136692857Y-117560380D01*
X136596095Y-117705523D01*
X136547714Y-117899047D01*
X136547714Y-118286095D01*
X136596095Y-118382857D01*
X136644476Y-118431238D01*
X136741238Y-118479619D01*
X136934761Y-118479619D01*
X137031523Y-118431238D01*
X137079904Y-118382857D01*
X137128285Y-118286095D01*
X137128285Y-118044190D01*
X137079904Y-117947428D01*
X137031523Y-117899047D01*
X136934761Y-117850666D01*
X136741238Y-117850666D01*
X136644476Y-117899047D01*
X136596095Y-117947428D01*
X136547714Y-118044190D01*
G04 #@! TO.C,C7*
X136204426Y-116462857D02*
X136156045Y-116511238D01*
X136010902Y-116559619D01*
X135914140Y-116559619D01*
X135768998Y-116511238D01*
X135672236Y-116414476D01*
X135623855Y-116317714D01*
X135575474Y-116124190D01*
X135575474Y-115979047D01*
X135623855Y-115785523D01*
X135672236Y-115688761D01*
X135768998Y-115592000D01*
X135914140Y-115543619D01*
X136010902Y-115543619D01*
X136156045Y-115592000D01*
X136204426Y-115640380D01*
X136543093Y-115543619D02*
X137220426Y-115543619D01*
X136784998Y-116559619D01*
G04 #@! TO.C,J1*
D17*
X99576666Y-100304523D02*
X99576666Y-101211666D01*
X99516190Y-101393095D01*
X99395238Y-101514047D01*
X99213809Y-101574523D01*
X99092857Y-101574523D01*
X100846666Y-101574523D02*
X100120952Y-101574523D01*
X100483809Y-101574523D02*
X100483809Y-100304523D01*
X100362857Y-100485952D01*
X100241904Y-100606904D01*
X100120952Y-100667380D01*
G04 #@! TO.C,L1*
D18*
X100930666Y-110459619D02*
X100446857Y-110459619D01*
X100446857Y-109443619D01*
X101801523Y-110459619D02*
X101220952Y-110459619D01*
X101511238Y-110459619D02*
X101511238Y-109443619D01*
X101414476Y-109588761D01*
X101317714Y-109685523D01*
X101220952Y-109733904D01*
G04 #@! TO.C,R8*
X128400906Y-128249619D02*
X128062240Y-127765809D01*
X127820335Y-128249619D02*
X127820335Y-127233619D01*
X128207382Y-127233619D01*
X128304144Y-127282000D01*
X128352525Y-127330380D01*
X128400906Y-127427142D01*
X128400906Y-127572285D01*
X128352525Y-127669047D01*
X128304144Y-127717428D01*
X128207382Y-127765809D01*
X127820335Y-127765809D01*
X128981478Y-127669047D02*
X128884716Y-127620666D01*
X128836335Y-127572285D01*
X128787954Y-127475523D01*
X128787954Y-127427142D01*
X128836335Y-127330380D01*
X128884716Y-127282000D01*
X128981478Y-127233619D01*
X129175001Y-127233619D01*
X129271763Y-127282000D01*
X129320144Y-127330380D01*
X129368525Y-127427142D01*
X129368525Y-127475523D01*
X129320144Y-127572285D01*
X129271763Y-127620666D01*
X129175001Y-127669047D01*
X128981478Y-127669047D01*
X128884716Y-127717428D01*
X128836335Y-127765809D01*
X128787954Y-127862571D01*
X128787954Y-128056095D01*
X128836335Y-128152857D01*
X128884716Y-128201238D01*
X128981478Y-128249619D01*
X129175001Y-128249619D01*
X129271763Y-128201238D01*
X129320144Y-128152857D01*
X129368525Y-128056095D01*
X129368525Y-127862571D01*
X129320144Y-127765809D01*
X129271763Y-127717428D01*
X129175001Y-127669047D01*
G04 #@! TO.C,U1*
D16*
X95502380Y-117444904D02*
X96311904Y-117444904D01*
X96407142Y-117397285D01*
X96454761Y-117349666D01*
X96502380Y-117254428D01*
X96502380Y-117063952D01*
X96454761Y-116968714D01*
X96407142Y-116921095D01*
X96311904Y-116873476D01*
X95502380Y-116873476D01*
X96502380Y-115873476D02*
X96502380Y-116444904D01*
X96502380Y-116159190D02*
X95502380Y-116159190D01*
X95645238Y-116254428D01*
X95740476Y-116349666D01*
X95788095Y-116444904D01*
G04 #@! TO.C,U2*
D11*
X113782335Y-118173897D02*
X114354755Y-118746317D01*
X114455770Y-118779989D01*
X114523114Y-118779989D01*
X114624129Y-118746317D01*
X114758816Y-118611630D01*
X114792488Y-118510615D01*
X114792488Y-118443271D01*
X114758816Y-118342256D01*
X114186396Y-117769836D01*
X114556786Y-117534134D02*
X114556786Y-117466791D01*
X114590457Y-117365775D01*
X114758816Y-117197417D01*
X114859831Y-117163745D01*
X114927175Y-117163745D01*
X115028190Y-117197417D01*
X115095534Y-117264760D01*
X115162877Y-117399447D01*
X115162877Y-118207569D01*
X115600610Y-117769836D01*
G04 #@! TO.C,R9*
D18*
X104059619Y-118621573D02*
X103575809Y-118960240D01*
X104059619Y-119202144D02*
X103043619Y-119202144D01*
X103043619Y-118815097D01*
X103092000Y-118718335D01*
X103140380Y-118669954D01*
X103237142Y-118621573D01*
X103382285Y-118621573D01*
X103479047Y-118669954D01*
X103527428Y-118718335D01*
X103575809Y-118815097D01*
X103575809Y-119202144D01*
X104059619Y-118137763D02*
X104059619Y-117944240D01*
X104011238Y-117847478D01*
X103962857Y-117799097D01*
X103817714Y-117702335D01*
X103624190Y-117653954D01*
X103237142Y-117653954D01*
X103140380Y-117702335D01*
X103092000Y-117750716D01*
X103043619Y-117847478D01*
X103043619Y-118041001D01*
X103092000Y-118137763D01*
X103140380Y-118186144D01*
X103237142Y-118234525D01*
X103479047Y-118234525D01*
X103575809Y-118186144D01*
X103624190Y-118137763D01*
X103672571Y-118041001D01*
X103672571Y-117847478D01*
X103624190Y-117750716D01*
X103575809Y-117702335D01*
X103479047Y-117653954D01*
G04 #@! TO.C,D1*
X105859619Y-119149904D02*
X104843619Y-119149904D01*
X104843619Y-118908000D01*
X104892000Y-118762857D01*
X104988761Y-118666095D01*
X105085523Y-118617714D01*
X105279047Y-118569333D01*
X105424190Y-118569333D01*
X105617714Y-118617714D01*
X105714476Y-118666095D01*
X105811238Y-118762857D01*
X105859619Y-118908000D01*
X105859619Y-119149904D01*
X105859619Y-117601714D02*
X105859619Y-118182285D01*
X105859619Y-117892000D02*
X104843619Y-117892000D01*
X104988761Y-117988761D01*
X105085523Y-118085523D01*
X105133904Y-118182285D01*
G04 #@! TD*
M02*
