G04 #@! TF.GenerationSoftware,KiCad,Pcbnew,(5.0.2)-1*
G04 #@! TF.CreationDate,2018-12-31T23:20:10+09:00*
G04 #@! TF.ProjectId,hdmi,68646d69-2e6b-4696-9361-645f70636258,rev?*
G04 #@! TF.SameCoordinates,Original*
G04 #@! TF.FileFunction,Legend,Bot*
G04 #@! TF.FilePolarity,Positive*
%FSLAX46Y46*%
G04 Gerber Fmt 4.6, Leading zero omitted, Abs format (unit mm)*
G04 Created by KiCad (PCBNEW (5.0.2)-1) date 2018/12/31 23:20:10*
%MOMM*%
%LPD*%
G01*
G04 APERTURE LIST*
%ADD10C,0.200000*%
%ADD11C,0.101600*%
%ADD12C,0.066040*%
%ADD13C,0.076200*%
G04 APERTURE END LIST*
D10*
X103661904Y-116285714D02*
X103700000Y-116323809D01*
X103814285Y-116361904D01*
X103890476Y-116361904D01*
X104004761Y-116323809D01*
X104080952Y-116247619D01*
X104119047Y-116171428D01*
X104157142Y-116019047D01*
X104157142Y-115904761D01*
X104119047Y-115752380D01*
X104080952Y-115676190D01*
X104004761Y-115600000D01*
X103890476Y-115561904D01*
X103814285Y-115561904D01*
X103700000Y-115600000D01*
X103661904Y-115638095D01*
X103433333Y-115561904D02*
X102976190Y-115561904D01*
X103204761Y-116361904D02*
X103204761Y-115561904D01*
X102328571Y-116361904D02*
X102709523Y-116361904D01*
X102709523Y-115561904D01*
X102138095Y-115561904D02*
X101642857Y-115561904D01*
X101909523Y-115866666D01*
X101795238Y-115866666D01*
X101719047Y-115904761D01*
X101680952Y-115942857D01*
X101642857Y-116019047D01*
X101642857Y-116209523D01*
X101680952Y-116285714D01*
X101719047Y-116323809D01*
X101795238Y-116361904D01*
X102023809Y-116361904D01*
X102100000Y-116323809D01*
X102138095Y-116285714D01*
X106561904Y-116285714D02*
X106600000Y-116323809D01*
X106714285Y-116361904D01*
X106790476Y-116361904D01*
X106904761Y-116323809D01*
X106980952Y-116247619D01*
X107019047Y-116171428D01*
X107057142Y-116019047D01*
X107057142Y-115904761D01*
X107019047Y-115752380D01*
X106980952Y-115676190D01*
X106904761Y-115600000D01*
X106790476Y-115561904D01*
X106714285Y-115561904D01*
X106600000Y-115600000D01*
X106561904Y-115638095D01*
X106333333Y-115561904D02*
X105876190Y-115561904D01*
X106104761Y-116361904D02*
X106104761Y-115561904D01*
X105228571Y-116361904D02*
X105609523Y-116361904D01*
X105609523Y-115561904D01*
X105000000Y-115638095D02*
X104961904Y-115600000D01*
X104885714Y-115561904D01*
X104695238Y-115561904D01*
X104619047Y-115600000D01*
X104580952Y-115638095D01*
X104542857Y-115714285D01*
X104542857Y-115790476D01*
X104580952Y-115904761D01*
X105038095Y-116361904D01*
X104542857Y-116361904D01*
X109561904Y-116285714D02*
X109600000Y-116323809D01*
X109714285Y-116361904D01*
X109790476Y-116361904D01*
X109904761Y-116323809D01*
X109980952Y-116247619D01*
X110019047Y-116171428D01*
X110057142Y-116019047D01*
X110057142Y-115904761D01*
X110019047Y-115752380D01*
X109980952Y-115676190D01*
X109904761Y-115600000D01*
X109790476Y-115561904D01*
X109714285Y-115561904D01*
X109600000Y-115600000D01*
X109561904Y-115638095D01*
X109333333Y-115561904D02*
X108876190Y-115561904D01*
X109104761Y-116361904D02*
X109104761Y-115561904D01*
X108228571Y-116361904D02*
X108609523Y-116361904D01*
X108609523Y-115561904D01*
X107542857Y-116361904D02*
X108000000Y-116361904D01*
X107771428Y-116361904D02*
X107771428Y-115561904D01*
X107847619Y-115676190D01*
X107923809Y-115752380D01*
X108000000Y-115790476D01*
X113628571Y-116361904D02*
X113628571Y-115561904D01*
X113361904Y-116133333D01*
X113095238Y-115561904D01*
X113095238Y-116361904D01*
X112752380Y-116323809D02*
X112638095Y-116361904D01*
X112447619Y-116361904D01*
X112371428Y-116323809D01*
X112333333Y-116285714D01*
X112295238Y-116209523D01*
X112295238Y-116133333D01*
X112333333Y-116057142D01*
X112371428Y-116019047D01*
X112447619Y-115980952D01*
X112600000Y-115942857D01*
X112676190Y-115904761D01*
X112714285Y-115866666D01*
X112752380Y-115790476D01*
X112752380Y-115714285D01*
X112714285Y-115638095D01*
X112676190Y-115600000D01*
X112600000Y-115561904D01*
X112409523Y-115561904D01*
X112295238Y-115600000D01*
X111952380Y-115942857D02*
X111685714Y-115942857D01*
X111571428Y-116361904D02*
X111952380Y-116361904D01*
X111952380Y-115561904D01*
X111571428Y-115561904D01*
X111228571Y-116361904D02*
X111228571Y-115561904D01*
X110771428Y-116361904D01*
X110771428Y-115561904D01*
X119790476Y-121661904D02*
X119790476Y-120861904D01*
X119599999Y-120861904D01*
X119485714Y-120900000D01*
X119409523Y-120976190D01*
X119371428Y-121052380D01*
X119333333Y-121204761D01*
X119333333Y-121319047D01*
X119371428Y-121471428D01*
X119409523Y-121547619D01*
X119485714Y-121623809D01*
X119599999Y-121661904D01*
X119790476Y-121661904D01*
X118990476Y-121661904D02*
X118990476Y-120861904D01*
X118533333Y-121661904D02*
X118876190Y-121204761D01*
X118533333Y-120861904D02*
X118990476Y-121319047D01*
X118190476Y-121242857D02*
X117923809Y-121242857D01*
X117809523Y-121661904D02*
X118190476Y-121661904D01*
X118190476Y-120861904D01*
X117809523Y-120861904D01*
X117466666Y-121661904D02*
X117466666Y-120861904D01*
X117009523Y-121661904D01*
X117009523Y-120861904D01*
X115809523Y-121242857D02*
X115695238Y-121280952D01*
X115657142Y-121319047D01*
X115619047Y-121395238D01*
X115619047Y-121509523D01*
X115657142Y-121585714D01*
X115695238Y-121623809D01*
X115771428Y-121661904D01*
X116076190Y-121661904D01*
X116076190Y-120861904D01*
X115809523Y-120861904D01*
X115733333Y-120900000D01*
X115695238Y-120938095D01*
X115657142Y-121014285D01*
X115657142Y-121090476D01*
X115695238Y-121166666D01*
X115733333Y-121204761D01*
X115809523Y-121242857D01*
X116076190Y-121242857D01*
X115314285Y-121623809D02*
X115200000Y-121661904D01*
X115009523Y-121661904D01*
X114933333Y-121623809D01*
X114895238Y-121585714D01*
X114857142Y-121509523D01*
X114857142Y-121433333D01*
X114895238Y-121357142D01*
X114933333Y-121319047D01*
X115009523Y-121280952D01*
X115161904Y-121242857D01*
X115238095Y-121204761D01*
X115276190Y-121166666D01*
X115314285Y-121090476D01*
X115314285Y-121014285D01*
X115276190Y-120938095D01*
X115238095Y-120900000D01*
X115161904Y-120861904D01*
X114971428Y-120861904D01*
X114857142Y-120900000D01*
X114514285Y-121242857D02*
X114247619Y-121242857D01*
X114133333Y-121661904D02*
X114514285Y-121661904D01*
X114514285Y-120861904D01*
X114133333Y-120861904D01*
X113409523Y-121661904D02*
X113790476Y-121661904D01*
X113790476Y-120861904D01*
X112976190Y-121661904D02*
X112976190Y-120861904D01*
X112785714Y-120861904D01*
X112671428Y-120900000D01*
X112595238Y-120976190D01*
X112557142Y-121052380D01*
X112519047Y-121204761D01*
X112519047Y-121319047D01*
X112557142Y-121471428D01*
X112595238Y-121547619D01*
X112671428Y-121623809D01*
X112785714Y-121661904D01*
X112976190Y-121661904D01*
X112214285Y-121623809D02*
X112100000Y-121661904D01*
X111909523Y-121661904D01*
X111833333Y-121623809D01*
X111795238Y-121585714D01*
X111757142Y-121509523D01*
X111757142Y-121433333D01*
X111795238Y-121357142D01*
X111833333Y-121319047D01*
X111909523Y-121280952D01*
X112061904Y-121242857D01*
X112138095Y-121204761D01*
X112176190Y-121166666D01*
X112214285Y-121090476D01*
X112214285Y-121014285D01*
X112176190Y-120938095D01*
X112138095Y-120900000D01*
X112061904Y-120861904D01*
X111871428Y-120861904D01*
X111757142Y-120900000D01*
X111414285Y-121242857D02*
X111147619Y-121242857D01*
X111033333Y-121661904D02*
X111414285Y-121661904D01*
X111414285Y-120861904D01*
X111033333Y-120861904D01*
X110309523Y-121661904D02*
X110690476Y-121661904D01*
X110690476Y-120861904D01*
X109766666Y-121661904D02*
X109766666Y-120861904D01*
X109423809Y-121623809D02*
X109309523Y-121661904D01*
X109119047Y-121661904D01*
X109042857Y-121623809D01*
X109004761Y-121585714D01*
X108966666Y-121509523D01*
X108966666Y-121433333D01*
X109004761Y-121357142D01*
X109042857Y-121319047D01*
X109119047Y-121280952D01*
X109271428Y-121242857D01*
X109347619Y-121204761D01*
X109385714Y-121166666D01*
X109423809Y-121090476D01*
X109423809Y-121014285D01*
X109385714Y-120938095D01*
X109347619Y-120900000D01*
X109271428Y-120861904D01*
X109080952Y-120861904D01*
X108966666Y-120900000D01*
X108623809Y-121242857D02*
X108357142Y-121242857D01*
X108242857Y-121661904D02*
X108623809Y-121661904D01*
X108623809Y-120861904D01*
X108242857Y-120861904D01*
X107519047Y-121661904D02*
X107900000Y-121661904D01*
X107900000Y-120861904D01*
X106509523Y-121661904D02*
X106509523Y-120861904D01*
X106204761Y-120861904D01*
X106128571Y-120900000D01*
X106090476Y-120938095D01*
X106052380Y-121014285D01*
X106052380Y-121128571D01*
X106090476Y-121204761D01*
X106128571Y-121242857D01*
X106204761Y-121280952D01*
X106509523Y-121280952D01*
X105709523Y-121661904D02*
X105709523Y-120861904D01*
X105519047Y-120861904D01*
X105404761Y-120900000D01*
X105328571Y-120976190D01*
X105290476Y-121052380D01*
X105252380Y-121204761D01*
X105252380Y-121319047D01*
X105290476Y-121471428D01*
X105328571Y-121547619D01*
X105404761Y-121623809D01*
X105519047Y-121661904D01*
X105709523Y-121661904D01*
X104233333Y-121242857D02*
X103966666Y-121242857D01*
X103852380Y-121661904D02*
X104233333Y-121661904D01*
X104233333Y-120861904D01*
X103852380Y-120861904D01*
X103509523Y-121661904D02*
X103509523Y-120861904D01*
X103319047Y-120861904D01*
X103204761Y-120900000D01*
X103128571Y-120976190D01*
X103090476Y-121052380D01*
X103052380Y-121204761D01*
X103052380Y-121319047D01*
X103090476Y-121471428D01*
X103128571Y-121547619D01*
X103204761Y-121623809D01*
X103319047Y-121661904D01*
X103509523Y-121661904D01*
X102290476Y-120900000D02*
X102366666Y-120861904D01*
X102480952Y-120861904D01*
X102595238Y-120900000D01*
X102671428Y-120976190D01*
X102709523Y-121052380D01*
X102747619Y-121204761D01*
X102747619Y-121319047D01*
X102709523Y-121471428D01*
X102671428Y-121547619D01*
X102595238Y-121623809D01*
X102480952Y-121661904D01*
X102404761Y-121661904D01*
X102290476Y-121623809D01*
X102252380Y-121585714D01*
X102252380Y-121319047D01*
X102404761Y-121319047D01*
X101909523Y-121242857D02*
X101642857Y-121242857D01*
X101528571Y-121661904D02*
X101909523Y-121661904D01*
X101909523Y-120861904D01*
X101528571Y-120861904D01*
X101809523Y-128500000D02*
X101885714Y-128461904D01*
X102000000Y-128461904D01*
X102114285Y-128500000D01*
X102190476Y-128576190D01*
X102228571Y-128652380D01*
X102266666Y-128804761D01*
X102266666Y-128919047D01*
X102228571Y-129071428D01*
X102190476Y-129147619D01*
X102114285Y-129223809D01*
X102000000Y-129261904D01*
X101923809Y-129261904D01*
X101809523Y-129223809D01*
X101771428Y-129185714D01*
X101771428Y-128919047D01*
X101923809Y-128919047D01*
X101428571Y-129261904D02*
X101428571Y-128461904D01*
X100971428Y-129261904D01*
X100971428Y-128461904D01*
X100590476Y-129261904D02*
X100590476Y-128461904D01*
X100400000Y-128461904D01*
X100285714Y-128500000D01*
X100209523Y-128576190D01*
X100171428Y-128652380D01*
X100133333Y-128804761D01*
X100133333Y-128919047D01*
X100171428Y-129071428D01*
X100209523Y-129147619D01*
X100285714Y-129223809D01*
X100400000Y-129261904D01*
X100590476Y-129261904D01*
X101938095Y-122061904D02*
X101442857Y-122061904D01*
X101709523Y-122366666D01*
X101595238Y-122366666D01*
X101519047Y-122404761D01*
X101480952Y-122442857D01*
X101442857Y-122519047D01*
X101442857Y-122709523D01*
X101480952Y-122785714D01*
X101519047Y-122823809D01*
X101595238Y-122861904D01*
X101823809Y-122861904D01*
X101900000Y-122823809D01*
X101938095Y-122785714D01*
X101100000Y-122785714D02*
X101061904Y-122823809D01*
X101100000Y-122861904D01*
X101138095Y-122823809D01*
X101100000Y-122785714D01*
X101100000Y-122861904D01*
X100795238Y-122061904D02*
X100300000Y-122061904D01*
X100566666Y-122366666D01*
X100452380Y-122366666D01*
X100376190Y-122404761D01*
X100338095Y-122442857D01*
X100300000Y-122519047D01*
X100300000Y-122709523D01*
X100338095Y-122785714D01*
X100376190Y-122823809D01*
X100452380Y-122861904D01*
X100680952Y-122861904D01*
X100757142Y-122823809D01*
X100795238Y-122785714D01*
D11*
G04 #@! TO.C,RX3*
X102652020Y-126276100D02*
X102652020Y-127723900D01*
X103347980Y-127723900D02*
X103347980Y-126276100D01*
D12*
X102202440Y-128399540D02*
X103797560Y-128399540D01*
X103797560Y-128399540D02*
X103797560Y-125600460D01*
X102202440Y-125600460D02*
X103797560Y-125600460D01*
X102202440Y-128399540D02*
X102202440Y-125600460D01*
X102601220Y-126550420D02*
X103398780Y-126550420D01*
X103398780Y-126550420D02*
X103398780Y-126202440D01*
X102601220Y-126202440D02*
X103398780Y-126202440D01*
X102601220Y-126550420D02*
X102601220Y-126202440D01*
X102601220Y-127797560D02*
X103398780Y-127797560D01*
X103398780Y-127797560D02*
X103398780Y-127449580D01*
X102601220Y-127449580D02*
X103398780Y-127449580D01*
X102601220Y-127797560D02*
X102601220Y-127449580D01*
G04 #@! TO.C,R1*
X102601220Y-124197560D02*
X102601220Y-123849580D01*
X102601220Y-123849580D02*
X103398780Y-123849580D01*
X103398780Y-124197560D02*
X103398780Y-123849580D01*
X102601220Y-124197560D02*
X103398780Y-124197560D01*
X102601220Y-122950420D02*
X102601220Y-122602440D01*
X102601220Y-122602440D02*
X103398780Y-122602440D01*
X103398780Y-122950420D02*
X103398780Y-122602440D01*
X102601220Y-122950420D02*
X103398780Y-122950420D01*
X102202440Y-124799540D02*
X102202440Y-122000460D01*
X102202440Y-122000460D02*
X103797560Y-122000460D01*
X103797560Y-124799540D02*
X103797560Y-122000460D01*
X102202440Y-124799540D02*
X103797560Y-124799540D01*
D11*
X103347980Y-124123900D02*
X103347980Y-122676100D01*
X102652020Y-122676100D02*
X102652020Y-124123900D01*
D12*
G04 #@! TO.C,R2*
X105501220Y-124171560D02*
X105501220Y-123823580D01*
X105501220Y-123823580D02*
X106298780Y-123823580D01*
X106298780Y-124171560D02*
X106298780Y-123823580D01*
X105501220Y-124171560D02*
X106298780Y-124171560D01*
X105501220Y-122924420D02*
X105501220Y-122576440D01*
X105501220Y-122576440D02*
X106298780Y-122576440D01*
X106298780Y-122924420D02*
X106298780Y-122576440D01*
X105501220Y-122924420D02*
X106298780Y-122924420D01*
X105102440Y-124773540D02*
X105102440Y-121974460D01*
X105102440Y-121974460D02*
X106697560Y-121974460D01*
X106697560Y-124773540D02*
X106697560Y-121974460D01*
X105102440Y-124773540D02*
X106697560Y-124773540D01*
D11*
X106247980Y-124097900D02*
X106247980Y-122650100D01*
X105552020Y-122650100D02*
X105552020Y-124097900D01*
D12*
G04 #@! TO.C,R3*
X108401220Y-127671560D02*
X108401220Y-127323580D01*
X108401220Y-127323580D02*
X109198780Y-127323580D01*
X109198780Y-127671560D02*
X109198780Y-127323580D01*
X108401220Y-127671560D02*
X109198780Y-127671560D01*
X108401220Y-126424420D02*
X108401220Y-126076440D01*
X108401220Y-126076440D02*
X109198780Y-126076440D01*
X109198780Y-126424420D02*
X109198780Y-126076440D01*
X108401220Y-126424420D02*
X109198780Y-126424420D01*
X108002440Y-128273540D02*
X108002440Y-125474460D01*
X108002440Y-125474460D02*
X109597560Y-125474460D01*
X109597560Y-128273540D02*
X109597560Y-125474460D01*
X108002440Y-128273540D02*
X109597560Y-128273540D01*
D11*
X109147980Y-127597900D02*
X109147980Y-126150100D01*
X108452020Y-126150100D02*
X108452020Y-127597900D01*
G04 #@! TO.C,R4*
X111452020Y-122676100D02*
X111452020Y-124123900D01*
X112147980Y-124123900D02*
X112147980Y-122676100D01*
D12*
X111002440Y-124799540D02*
X112597560Y-124799540D01*
X112597560Y-124799540D02*
X112597560Y-122000460D01*
X111002440Y-122000460D02*
X112597560Y-122000460D01*
X111002440Y-124799540D02*
X111002440Y-122000460D01*
X111401220Y-122950420D02*
X112198780Y-122950420D01*
X112198780Y-122950420D02*
X112198780Y-122602440D01*
X111401220Y-122602440D02*
X112198780Y-122602440D01*
X111401220Y-122950420D02*
X111401220Y-122602440D01*
X111401220Y-124197560D02*
X112198780Y-124197560D01*
X112198780Y-124197560D02*
X112198780Y-123849580D01*
X111401220Y-123849580D02*
X112198780Y-123849580D01*
X111401220Y-124197560D02*
X111401220Y-123849580D01*
G04 #@! TO.C,R5*
X114401220Y-127697560D02*
X114401220Y-127349580D01*
X114401220Y-127349580D02*
X115198780Y-127349580D01*
X115198780Y-127697560D02*
X115198780Y-127349580D01*
X114401220Y-127697560D02*
X115198780Y-127697560D01*
X114401220Y-126450420D02*
X114401220Y-126102440D01*
X114401220Y-126102440D02*
X115198780Y-126102440D01*
X115198780Y-126450420D02*
X115198780Y-126102440D01*
X114401220Y-126450420D02*
X115198780Y-126450420D01*
X114002440Y-128299540D02*
X114002440Y-125500460D01*
X114002440Y-125500460D02*
X115597560Y-125500460D01*
X115597560Y-128299540D02*
X115597560Y-125500460D01*
X114002440Y-128299540D02*
X115597560Y-128299540D01*
D11*
X115147980Y-127623900D02*
X115147980Y-126176100D01*
X114452020Y-126176100D02*
X114452020Y-127623900D01*
G04 #@! TO.C,R6*
X117452020Y-122676100D02*
X117452020Y-124123900D01*
X118147980Y-124123900D02*
X118147980Y-122676100D01*
D12*
X117002440Y-124799540D02*
X118597560Y-124799540D01*
X118597560Y-124799540D02*
X118597560Y-122000460D01*
X117002440Y-122000460D02*
X118597560Y-122000460D01*
X117002440Y-124799540D02*
X117002440Y-122000460D01*
X117401220Y-122950420D02*
X118198780Y-122950420D01*
X118198780Y-122950420D02*
X118198780Y-122602440D01*
X117401220Y-122602440D02*
X118198780Y-122602440D01*
X117401220Y-122950420D02*
X117401220Y-122602440D01*
X117401220Y-124197560D02*
X118198780Y-124197560D01*
X118198780Y-124197560D02*
X118198780Y-123849580D01*
X117401220Y-123849580D02*
X118198780Y-123849580D01*
X117401220Y-124197560D02*
X117401220Y-123849580D01*
G04 #@! TO.C,R7*
X116957560Y-110208780D02*
X116609580Y-110208780D01*
X116609580Y-110208780D02*
X116609580Y-109411220D01*
X116957560Y-109411220D02*
X116609580Y-109411220D01*
X116957560Y-110208780D02*
X116957560Y-109411220D01*
X115710420Y-110208780D02*
X115362440Y-110208780D01*
X115362440Y-110208780D02*
X115362440Y-109411220D01*
X115710420Y-109411220D02*
X115362440Y-109411220D01*
X115710420Y-110208780D02*
X115710420Y-109411220D01*
X117559540Y-110607560D02*
X114760460Y-110607560D01*
X114760460Y-110607560D02*
X114760460Y-109012440D01*
X117559540Y-109012440D02*
X114760460Y-109012440D01*
X117559540Y-110607560D02*
X117559540Y-109012440D01*
D11*
X116883900Y-109462020D02*
X115436100Y-109462020D01*
X115436100Y-110157980D02*
X116883900Y-110157980D01*
D12*
G04 #@! TO.C,RX1*
X135997560Y-126298780D02*
X135649580Y-126298780D01*
X135649580Y-126298780D02*
X135649580Y-125501220D01*
X135997560Y-125501220D02*
X135649580Y-125501220D01*
X135997560Y-126298780D02*
X135997560Y-125501220D01*
X134750420Y-126298780D02*
X134402440Y-126298780D01*
X134402440Y-126298780D02*
X134402440Y-125501220D01*
X134750420Y-125501220D02*
X134402440Y-125501220D01*
X134750420Y-126298780D02*
X134750420Y-125501220D01*
X136599540Y-126697560D02*
X133800460Y-126697560D01*
X133800460Y-126697560D02*
X133800460Y-125102440D01*
X136599540Y-125102440D02*
X133800460Y-125102440D01*
X136599540Y-126697560D02*
X136599540Y-125102440D01*
D11*
X135923900Y-125552020D02*
X134476100Y-125552020D01*
X134476100Y-126247980D02*
X135923900Y-126247980D01*
G04 #@! TO.C,RX2*
X134396100Y-128167980D02*
X135843900Y-128167980D01*
X135843900Y-127472020D02*
X134396100Y-127472020D01*
D12*
X136519540Y-128617560D02*
X136519540Y-127022440D01*
X136519540Y-127022440D02*
X133720460Y-127022440D01*
X133720460Y-128617560D02*
X133720460Y-127022440D01*
X136519540Y-128617560D02*
X133720460Y-128617560D01*
X134670420Y-128218780D02*
X134670420Y-127421220D01*
X134670420Y-127421220D02*
X134322440Y-127421220D01*
X134322440Y-128218780D02*
X134322440Y-127421220D01*
X134670420Y-128218780D02*
X134322440Y-128218780D01*
X135917560Y-128218780D02*
X135917560Y-127421220D01*
X135917560Y-127421220D02*
X135569580Y-127421220D01*
X135569580Y-128218780D02*
X135569580Y-127421220D01*
X135917560Y-128218780D02*
X135569580Y-128218780D01*
D11*
G04 #@! TO.C,RX4*
X105552020Y-126176100D02*
X105552020Y-127623900D01*
X106247980Y-127623900D02*
X106247980Y-126176100D01*
D12*
X105102440Y-128299540D02*
X106697560Y-128299540D01*
X106697560Y-128299540D02*
X106697560Y-125500460D01*
X105102440Y-125500460D02*
X106697560Y-125500460D01*
X105102440Y-128299540D02*
X105102440Y-125500460D01*
X105501220Y-126450420D02*
X106298780Y-126450420D01*
X106298780Y-126450420D02*
X106298780Y-126102440D01*
X105501220Y-126102440D02*
X106298780Y-126102440D01*
X105501220Y-126450420D02*
X105501220Y-126102440D01*
X105501220Y-127697560D02*
X106298780Y-127697560D01*
X106298780Y-127697560D02*
X106298780Y-127349580D01*
X105501220Y-127349580D02*
X106298780Y-127349580D01*
X105501220Y-127697560D02*
X105501220Y-127349580D01*
D11*
G04 #@! TO.C,RX5*
X111372020Y-117436100D02*
X111372020Y-118883900D01*
X112067980Y-118883900D02*
X112067980Y-117436100D01*
D12*
X110922440Y-119559540D02*
X112517560Y-119559540D01*
X112517560Y-119559540D02*
X112517560Y-116760460D01*
X110922440Y-116760460D02*
X112517560Y-116760460D01*
X110922440Y-119559540D02*
X110922440Y-116760460D01*
X111321220Y-117710420D02*
X112118780Y-117710420D01*
X112118780Y-117710420D02*
X112118780Y-117362440D01*
X111321220Y-117362440D02*
X112118780Y-117362440D01*
X111321220Y-117710420D02*
X111321220Y-117362440D01*
X111321220Y-118957560D02*
X112118780Y-118957560D01*
X112118780Y-118957560D02*
X112118780Y-118609580D01*
X111321220Y-118609580D02*
X112118780Y-118609580D01*
X111321220Y-118957560D02*
X111321220Y-118609580D01*
D11*
G04 #@! TO.C,RX6*
X108452020Y-122676100D02*
X108452020Y-124123900D01*
X109147980Y-124123900D02*
X109147980Y-122676100D01*
D12*
X108002440Y-124799540D02*
X109597560Y-124799540D01*
X109597560Y-124799540D02*
X109597560Y-122000460D01*
X108002440Y-122000460D02*
X109597560Y-122000460D01*
X108002440Y-124799540D02*
X108002440Y-122000460D01*
X108401220Y-122950420D02*
X109198780Y-122950420D01*
X109198780Y-122950420D02*
X109198780Y-122602440D01*
X108401220Y-122602440D02*
X109198780Y-122602440D01*
X108401220Y-122950420D02*
X108401220Y-122602440D01*
X108401220Y-124197560D02*
X109198780Y-124197560D01*
X109198780Y-124197560D02*
X109198780Y-123849580D01*
X108401220Y-123849580D02*
X109198780Y-123849580D01*
X108401220Y-124197560D02*
X108401220Y-123849580D01*
G04 #@! TO.C,RX7*
X111401220Y-127697560D02*
X111401220Y-127349580D01*
X111401220Y-127349580D02*
X112198780Y-127349580D01*
X112198780Y-127697560D02*
X112198780Y-127349580D01*
X111401220Y-127697560D02*
X112198780Y-127697560D01*
X111401220Y-126450420D02*
X111401220Y-126102440D01*
X111401220Y-126102440D02*
X112198780Y-126102440D01*
X112198780Y-126450420D02*
X112198780Y-126102440D01*
X111401220Y-126450420D02*
X112198780Y-126450420D01*
X111002440Y-128299540D02*
X111002440Y-125500460D01*
X111002440Y-125500460D02*
X112597560Y-125500460D01*
X112597560Y-128299540D02*
X112597560Y-125500460D01*
X111002440Y-128299540D02*
X112597560Y-128299540D01*
D11*
X112147980Y-127623900D02*
X112147980Y-126176100D01*
X111452020Y-126176100D02*
X111452020Y-127623900D01*
D12*
G04 #@! TO.C,RX8*
X114401220Y-124197560D02*
X114401220Y-123849580D01*
X114401220Y-123849580D02*
X115198780Y-123849580D01*
X115198780Y-124197560D02*
X115198780Y-123849580D01*
X114401220Y-124197560D02*
X115198780Y-124197560D01*
X114401220Y-122950420D02*
X114401220Y-122602440D01*
X114401220Y-122602440D02*
X115198780Y-122602440D01*
X115198780Y-122950420D02*
X115198780Y-122602440D01*
X114401220Y-122950420D02*
X115198780Y-122950420D01*
X114002440Y-124799540D02*
X114002440Y-122000460D01*
X114002440Y-122000460D02*
X115597560Y-122000460D01*
X115597560Y-124799540D02*
X115597560Y-122000460D01*
X114002440Y-124799540D02*
X115597560Y-124799540D01*
D11*
X115147980Y-124123900D02*
X115147980Y-122676100D01*
X114452020Y-122676100D02*
X114452020Y-124123900D01*
D12*
G04 #@! TO.C,RX9*
X117401220Y-127697560D02*
X117401220Y-127349580D01*
X117401220Y-127349580D02*
X118198780Y-127349580D01*
X118198780Y-127697560D02*
X118198780Y-127349580D01*
X117401220Y-127697560D02*
X118198780Y-127697560D01*
X117401220Y-126450420D02*
X117401220Y-126102440D01*
X117401220Y-126102440D02*
X118198780Y-126102440D01*
X118198780Y-126450420D02*
X118198780Y-126102440D01*
X117401220Y-126450420D02*
X118198780Y-126450420D01*
X117002440Y-128299540D02*
X117002440Y-125500460D01*
X117002440Y-125500460D02*
X118597560Y-125500460D01*
X118597560Y-128299540D02*
X118597560Y-125500460D01*
X117002440Y-128299540D02*
X118597560Y-128299540D01*
D11*
X118147980Y-127623900D02*
X118147980Y-126176100D01*
X117452020Y-126176100D02*
X117452020Y-127623900D01*
G04 #@! TO.C,RX10*
X108442020Y-117416100D02*
X108442020Y-118863900D01*
X109137980Y-118863900D02*
X109137980Y-117416100D01*
D12*
X107992440Y-119539540D02*
X109587560Y-119539540D01*
X109587560Y-119539540D02*
X109587560Y-116740460D01*
X107992440Y-116740460D02*
X109587560Y-116740460D01*
X107992440Y-119539540D02*
X107992440Y-116740460D01*
X108391220Y-117690420D02*
X109188780Y-117690420D01*
X109188780Y-117690420D02*
X109188780Y-117342440D01*
X108391220Y-117342440D02*
X109188780Y-117342440D01*
X108391220Y-117690420D02*
X108391220Y-117342440D01*
X108391220Y-118937560D02*
X109188780Y-118937560D01*
X109188780Y-118937560D02*
X109188780Y-118589580D01*
X108391220Y-118589580D02*
X109188780Y-118589580D01*
X108391220Y-118937560D02*
X108391220Y-118589580D01*
D11*
G04 #@! TO.C,RX11*
X105502020Y-117376100D02*
X105502020Y-118823900D01*
X106197980Y-118823900D02*
X106197980Y-117376100D01*
D12*
X105052440Y-119499540D02*
X106647560Y-119499540D01*
X106647560Y-119499540D02*
X106647560Y-116700460D01*
X105052440Y-116700460D02*
X106647560Y-116700460D01*
X105052440Y-119499540D02*
X105052440Y-116700460D01*
X105451220Y-117650420D02*
X106248780Y-117650420D01*
X106248780Y-117650420D02*
X106248780Y-117302440D01*
X105451220Y-117302440D02*
X106248780Y-117302440D01*
X105451220Y-117650420D02*
X105451220Y-117302440D01*
X105451220Y-118897560D02*
X106248780Y-118897560D01*
X106248780Y-118897560D02*
X106248780Y-118549580D01*
X105451220Y-118549580D02*
X106248780Y-118549580D01*
X105451220Y-118897560D02*
X105451220Y-118549580D01*
G04 #@! TO.C,RX12*
X102591220Y-118887560D02*
X102591220Y-118539580D01*
X102591220Y-118539580D02*
X103388780Y-118539580D01*
X103388780Y-118887560D02*
X103388780Y-118539580D01*
X102591220Y-118887560D02*
X103388780Y-118887560D01*
X102591220Y-117640420D02*
X102591220Y-117292440D01*
X102591220Y-117292440D02*
X103388780Y-117292440D01*
X103388780Y-117640420D02*
X103388780Y-117292440D01*
X102591220Y-117640420D02*
X103388780Y-117640420D01*
X102192440Y-119489540D02*
X102192440Y-116690460D01*
X102192440Y-116690460D02*
X103787560Y-116690460D01*
X103787560Y-119489540D02*
X103787560Y-116690460D01*
X102192440Y-119489540D02*
X103787560Y-119489540D01*
D11*
X103337980Y-118813900D02*
X103337980Y-117366100D01*
X102642020Y-117366100D02*
X102642020Y-118813900D01*
G04 #@! TO.C,RX3*
D13*
X102159619Y-126346857D02*
X101675809Y-126008190D01*
X102159619Y-125766285D02*
X101143619Y-125766285D01*
X101143619Y-126153333D01*
X101192000Y-126250095D01*
X101240380Y-126298476D01*
X101337142Y-126346857D01*
X101482285Y-126346857D01*
X101579047Y-126298476D01*
X101627428Y-126250095D01*
X101675809Y-126153333D01*
X101675809Y-125766285D01*
X101143619Y-126685523D02*
X102159619Y-127362857D01*
X101143619Y-127362857D02*
X102159619Y-126685523D01*
X101143619Y-127653142D02*
X101143619Y-128282095D01*
X101530666Y-127943428D01*
X101530666Y-128088571D01*
X101579047Y-128185333D01*
X101627428Y-128233714D01*
X101724190Y-128282095D01*
X101966095Y-128282095D01*
X102062857Y-128233714D01*
X102111238Y-128185333D01*
X102159619Y-128088571D01*
X102159619Y-127798285D01*
X102111238Y-127701523D01*
X102062857Y-127653142D01*
G04 #@! TO.C,R1*
X102159619Y-123730666D02*
X101675809Y-123392000D01*
X102159619Y-123150095D02*
X101143619Y-123150095D01*
X101143619Y-123537142D01*
X101192000Y-123633904D01*
X101240380Y-123682285D01*
X101337142Y-123730666D01*
X101482285Y-123730666D01*
X101579047Y-123682285D01*
X101627428Y-123633904D01*
X101675809Y-123537142D01*
X101675809Y-123150095D01*
X102159619Y-124698285D02*
X102159619Y-124117714D01*
X102159619Y-124408000D02*
X101143619Y-124408000D01*
X101288761Y-124311238D01*
X101385523Y-124214476D01*
X101433904Y-124117714D01*
G04 #@! TO.C,R2*
X104959619Y-123230906D02*
X104475809Y-122892240D01*
X104959619Y-122650335D02*
X103943619Y-122650335D01*
X103943619Y-123037382D01*
X103992000Y-123134144D01*
X104040380Y-123182525D01*
X104137142Y-123230906D01*
X104282285Y-123230906D01*
X104379047Y-123182525D01*
X104427428Y-123134144D01*
X104475809Y-123037382D01*
X104475809Y-122650335D01*
X104040380Y-123617954D02*
X103992000Y-123666335D01*
X103943619Y-123763097D01*
X103943619Y-124005001D01*
X103992000Y-124101763D01*
X104040380Y-124150144D01*
X104137142Y-124198525D01*
X104233904Y-124198525D01*
X104379047Y-124150144D01*
X104959619Y-123569573D01*
X104959619Y-124198525D01*
G04 #@! TO.C,R3*
X107959619Y-126630906D02*
X107475809Y-126292240D01*
X107959619Y-126050335D02*
X106943619Y-126050335D01*
X106943619Y-126437382D01*
X106992000Y-126534144D01*
X107040380Y-126582525D01*
X107137142Y-126630906D01*
X107282285Y-126630906D01*
X107379047Y-126582525D01*
X107427428Y-126534144D01*
X107475809Y-126437382D01*
X107475809Y-126050335D01*
X106943619Y-126969573D02*
X106943619Y-127598525D01*
X107330666Y-127259859D01*
X107330666Y-127405001D01*
X107379047Y-127501763D01*
X107427428Y-127550144D01*
X107524190Y-127598525D01*
X107766095Y-127598525D01*
X107862857Y-127550144D01*
X107911238Y-127501763D01*
X107959619Y-127405001D01*
X107959619Y-127114716D01*
X107911238Y-127017954D01*
X107862857Y-126969573D01*
G04 #@! TO.C,R4*
X110959619Y-123130666D02*
X110475809Y-122792000D01*
X110959619Y-122550095D02*
X109943619Y-122550095D01*
X109943619Y-122937142D01*
X109992000Y-123033904D01*
X110040380Y-123082285D01*
X110137142Y-123130666D01*
X110282285Y-123130666D01*
X110379047Y-123082285D01*
X110427428Y-123033904D01*
X110475809Y-122937142D01*
X110475809Y-122550095D01*
X110282285Y-124001523D02*
X110959619Y-124001523D01*
X109895238Y-123759619D02*
X110620952Y-123517714D01*
X110620952Y-124146666D01*
G04 #@! TO.C,R5*
X113759619Y-126730666D02*
X113275809Y-126392000D01*
X113759619Y-126150095D02*
X112743619Y-126150095D01*
X112743619Y-126537142D01*
X112792000Y-126633904D01*
X112840380Y-126682285D01*
X112937142Y-126730666D01*
X113082285Y-126730666D01*
X113179047Y-126682285D01*
X113227428Y-126633904D01*
X113275809Y-126537142D01*
X113275809Y-126150095D01*
X112743619Y-127649904D02*
X112743619Y-127166095D01*
X113227428Y-127117714D01*
X113179047Y-127166095D01*
X113130666Y-127262857D01*
X113130666Y-127504761D01*
X113179047Y-127601523D01*
X113227428Y-127649904D01*
X113324190Y-127698285D01*
X113566095Y-127698285D01*
X113662857Y-127649904D01*
X113711238Y-127601523D01*
X113759619Y-127504761D01*
X113759619Y-127262857D01*
X113711238Y-127166095D01*
X113662857Y-127117714D01*
G04 #@! TO.C,R6*
X116759619Y-123230666D02*
X116275809Y-122892000D01*
X116759619Y-122650095D02*
X115743619Y-122650095D01*
X115743619Y-123037142D01*
X115792000Y-123133904D01*
X115840380Y-123182285D01*
X115937142Y-123230666D01*
X116082285Y-123230666D01*
X116179047Y-123182285D01*
X116227428Y-123133904D01*
X116275809Y-123037142D01*
X116275809Y-122650095D01*
X115743619Y-124101523D02*
X115743619Y-123908000D01*
X115792000Y-123811238D01*
X115840380Y-123762857D01*
X115985523Y-123666095D01*
X116179047Y-123617714D01*
X116566095Y-123617714D01*
X116662857Y-123666095D01*
X116711238Y-123714476D01*
X116759619Y-123811238D01*
X116759619Y-124004761D01*
X116711238Y-124101523D01*
X116662857Y-124149904D01*
X116566095Y-124198285D01*
X116324190Y-124198285D01*
X116227428Y-124149904D01*
X116179047Y-124101523D01*
X116130666Y-124004761D01*
X116130666Y-123811238D01*
X116179047Y-123714476D01*
X116227428Y-123666095D01*
X116324190Y-123617714D01*
G04 #@! TO.C,R7*
X116259333Y-108919619D02*
X116598000Y-108435809D01*
X116839904Y-108919619D02*
X116839904Y-107903619D01*
X116452857Y-107903619D01*
X116356095Y-107952000D01*
X116307714Y-108000380D01*
X116259333Y-108097142D01*
X116259333Y-108242285D01*
X116307714Y-108339047D01*
X116356095Y-108387428D01*
X116452857Y-108435809D01*
X116839904Y-108435809D01*
X115920666Y-107903619D02*
X115243333Y-107903619D01*
X115678761Y-108919619D01*
G04 #@! TO.C,RX1*
X138613142Y-126399619D02*
X138951809Y-125915809D01*
X139193714Y-126399619D02*
X139193714Y-125383619D01*
X138806666Y-125383619D01*
X138709904Y-125432000D01*
X138661523Y-125480380D01*
X138613142Y-125577142D01*
X138613142Y-125722285D01*
X138661523Y-125819047D01*
X138709904Y-125867428D01*
X138806666Y-125915809D01*
X139193714Y-125915809D01*
X138274476Y-125383619D02*
X137597142Y-126399619D01*
X137597142Y-125383619D02*
X138274476Y-126399619D01*
X136677904Y-126399619D02*
X137258476Y-126399619D01*
X136968190Y-126399619D02*
X136968190Y-125383619D01*
X137064952Y-125528761D01*
X137161714Y-125625523D01*
X137258476Y-125673904D01*
G04 #@! TO.C,RX2*
X138593142Y-128339619D02*
X138931809Y-127855809D01*
X139173714Y-128339619D02*
X139173714Y-127323619D01*
X138786666Y-127323619D01*
X138689904Y-127372000D01*
X138641523Y-127420380D01*
X138593142Y-127517142D01*
X138593142Y-127662285D01*
X138641523Y-127759047D01*
X138689904Y-127807428D01*
X138786666Y-127855809D01*
X139173714Y-127855809D01*
X138254476Y-127323619D02*
X137577142Y-128339619D01*
X137577142Y-127323619D02*
X138254476Y-128339619D01*
X137238476Y-127420380D02*
X137190095Y-127372000D01*
X137093333Y-127323619D01*
X136851428Y-127323619D01*
X136754666Y-127372000D01*
X136706285Y-127420380D01*
X136657904Y-127517142D01*
X136657904Y-127613904D01*
X136706285Y-127759047D01*
X137286857Y-128339619D01*
X136657904Y-128339619D01*
G04 #@! TO.C,RX4*
X105059619Y-126246857D02*
X104575809Y-125908190D01*
X105059619Y-125666285D02*
X104043619Y-125666285D01*
X104043619Y-126053333D01*
X104092000Y-126150095D01*
X104140380Y-126198476D01*
X104237142Y-126246857D01*
X104382285Y-126246857D01*
X104479047Y-126198476D01*
X104527428Y-126150095D01*
X104575809Y-126053333D01*
X104575809Y-125666285D01*
X104043619Y-126585523D02*
X105059619Y-127262857D01*
X104043619Y-127262857D02*
X105059619Y-126585523D01*
X104382285Y-128085333D02*
X105059619Y-128085333D01*
X103995238Y-127843428D02*
X104720952Y-127601523D01*
X104720952Y-128230476D01*
G04 #@! TO.C,RX5*
X110879619Y-117446857D02*
X110395809Y-117108190D01*
X110879619Y-116866285D02*
X109863619Y-116866285D01*
X109863619Y-117253333D01*
X109912000Y-117350095D01*
X109960380Y-117398476D01*
X110057142Y-117446857D01*
X110202285Y-117446857D01*
X110299047Y-117398476D01*
X110347428Y-117350095D01*
X110395809Y-117253333D01*
X110395809Y-116866285D01*
X109863619Y-117785523D02*
X110879619Y-118462857D01*
X109863619Y-118462857D02*
X110879619Y-117785523D01*
X109863619Y-119333714D02*
X109863619Y-118849904D01*
X110347428Y-118801523D01*
X110299047Y-118849904D01*
X110250666Y-118946666D01*
X110250666Y-119188571D01*
X110299047Y-119285333D01*
X110347428Y-119333714D01*
X110444190Y-119382095D01*
X110686095Y-119382095D01*
X110782857Y-119333714D01*
X110831238Y-119285333D01*
X110879619Y-119188571D01*
X110879619Y-118946666D01*
X110831238Y-118849904D01*
X110782857Y-118801523D01*
G04 #@! TO.C,RX6*
X107859619Y-122746857D02*
X107375809Y-122408190D01*
X107859619Y-122166285D02*
X106843619Y-122166285D01*
X106843619Y-122553333D01*
X106892000Y-122650095D01*
X106940380Y-122698476D01*
X107037142Y-122746857D01*
X107182285Y-122746857D01*
X107279047Y-122698476D01*
X107327428Y-122650095D01*
X107375809Y-122553333D01*
X107375809Y-122166285D01*
X106843619Y-123085523D02*
X107859619Y-123762857D01*
X106843619Y-123762857D02*
X107859619Y-123085523D01*
X106843619Y-124585333D02*
X106843619Y-124391809D01*
X106892000Y-124295047D01*
X106940380Y-124246666D01*
X107085523Y-124149904D01*
X107279047Y-124101523D01*
X107666095Y-124101523D01*
X107762857Y-124149904D01*
X107811238Y-124198285D01*
X107859619Y-124295047D01*
X107859619Y-124488571D01*
X107811238Y-124585333D01*
X107762857Y-124633714D01*
X107666095Y-124682095D01*
X107424190Y-124682095D01*
X107327428Y-124633714D01*
X107279047Y-124585333D01*
X107230666Y-124488571D01*
X107230666Y-124295047D01*
X107279047Y-124198285D01*
X107327428Y-124149904D01*
X107424190Y-124101523D01*
G04 #@! TO.C,RX7*
X110859619Y-126146857D02*
X110375809Y-125808190D01*
X110859619Y-125566285D02*
X109843619Y-125566285D01*
X109843619Y-125953333D01*
X109892000Y-126050095D01*
X109940380Y-126098476D01*
X110037142Y-126146857D01*
X110182285Y-126146857D01*
X110279047Y-126098476D01*
X110327428Y-126050095D01*
X110375809Y-125953333D01*
X110375809Y-125566285D01*
X109843619Y-126485523D02*
X110859619Y-127162857D01*
X109843619Y-127162857D02*
X110859619Y-126485523D01*
X109843619Y-127453142D02*
X109843619Y-128130476D01*
X110859619Y-127695047D01*
G04 #@! TO.C,RX8*
X113759619Y-122746857D02*
X113275809Y-122408190D01*
X113759619Y-122166285D02*
X112743619Y-122166285D01*
X112743619Y-122553333D01*
X112792000Y-122650095D01*
X112840380Y-122698476D01*
X112937142Y-122746857D01*
X113082285Y-122746857D01*
X113179047Y-122698476D01*
X113227428Y-122650095D01*
X113275809Y-122553333D01*
X113275809Y-122166285D01*
X112743619Y-123085523D02*
X113759619Y-123762857D01*
X112743619Y-123762857D02*
X113759619Y-123085523D01*
X113179047Y-124295047D02*
X113130666Y-124198285D01*
X113082285Y-124149904D01*
X112985523Y-124101523D01*
X112937142Y-124101523D01*
X112840380Y-124149904D01*
X112792000Y-124198285D01*
X112743619Y-124295047D01*
X112743619Y-124488571D01*
X112792000Y-124585333D01*
X112840380Y-124633714D01*
X112937142Y-124682095D01*
X112985523Y-124682095D01*
X113082285Y-124633714D01*
X113130666Y-124585333D01*
X113179047Y-124488571D01*
X113179047Y-124295047D01*
X113227428Y-124198285D01*
X113275809Y-124149904D01*
X113372571Y-124101523D01*
X113566095Y-124101523D01*
X113662857Y-124149904D01*
X113711238Y-124198285D01*
X113759619Y-124295047D01*
X113759619Y-124488571D01*
X113711238Y-124585333D01*
X113662857Y-124633714D01*
X113566095Y-124682095D01*
X113372571Y-124682095D01*
X113275809Y-124633714D01*
X113227428Y-124585333D01*
X113179047Y-124488571D01*
G04 #@! TO.C,RX9*
X116759619Y-126246857D02*
X116275809Y-125908190D01*
X116759619Y-125666285D02*
X115743619Y-125666285D01*
X115743619Y-126053333D01*
X115792000Y-126150095D01*
X115840380Y-126198476D01*
X115937142Y-126246857D01*
X116082285Y-126246857D01*
X116179047Y-126198476D01*
X116227428Y-126150095D01*
X116275809Y-126053333D01*
X116275809Y-125666285D01*
X115743619Y-126585523D02*
X116759619Y-127262857D01*
X115743619Y-127262857D02*
X116759619Y-126585523D01*
X116759619Y-127698285D02*
X116759619Y-127891809D01*
X116711238Y-127988571D01*
X116662857Y-128036952D01*
X116517714Y-128133714D01*
X116324190Y-128182095D01*
X115937142Y-128182095D01*
X115840380Y-128133714D01*
X115792000Y-128085333D01*
X115743619Y-127988571D01*
X115743619Y-127795047D01*
X115792000Y-127698285D01*
X115840380Y-127649904D01*
X115937142Y-127601523D01*
X116179047Y-127601523D01*
X116275809Y-127649904D01*
X116324190Y-127698285D01*
X116372571Y-127795047D01*
X116372571Y-127988571D01*
X116324190Y-128085333D01*
X116275809Y-128133714D01*
X116179047Y-128182095D01*
G04 #@! TO.C,RX10*
X107849619Y-116923047D02*
X107365809Y-116584380D01*
X107849619Y-116342476D02*
X106833619Y-116342476D01*
X106833619Y-116729523D01*
X106882000Y-116826285D01*
X106930380Y-116874666D01*
X107027142Y-116923047D01*
X107172285Y-116923047D01*
X107269047Y-116874666D01*
X107317428Y-116826285D01*
X107365809Y-116729523D01*
X107365809Y-116342476D01*
X106833619Y-117261714D02*
X107849619Y-117939047D01*
X106833619Y-117939047D02*
X107849619Y-117261714D01*
X107849619Y-118858285D02*
X107849619Y-118277714D01*
X107849619Y-118568000D02*
X106833619Y-118568000D01*
X106978761Y-118471238D01*
X107075523Y-118374476D01*
X107123904Y-118277714D01*
X106833619Y-119487238D02*
X106833619Y-119584000D01*
X106882000Y-119680761D01*
X106930380Y-119729142D01*
X107027142Y-119777523D01*
X107220666Y-119825904D01*
X107462571Y-119825904D01*
X107656095Y-119777523D01*
X107752857Y-119729142D01*
X107801238Y-119680761D01*
X107849619Y-119584000D01*
X107849619Y-119487238D01*
X107801238Y-119390476D01*
X107752857Y-119342095D01*
X107656095Y-119293714D01*
X107462571Y-119245333D01*
X107220666Y-119245333D01*
X107027142Y-119293714D01*
X106930380Y-119342095D01*
X106882000Y-119390476D01*
X106833619Y-119487238D01*
G04 #@! TO.C,RX11*
X104969619Y-116943047D02*
X104485809Y-116604380D01*
X104969619Y-116362476D02*
X103953619Y-116362476D01*
X103953619Y-116749523D01*
X104002000Y-116846285D01*
X104050380Y-116894666D01*
X104147142Y-116943047D01*
X104292285Y-116943047D01*
X104389047Y-116894666D01*
X104437428Y-116846285D01*
X104485809Y-116749523D01*
X104485809Y-116362476D01*
X103953619Y-117281714D02*
X104969619Y-117959047D01*
X103953619Y-117959047D02*
X104969619Y-117281714D01*
X104969619Y-118878285D02*
X104969619Y-118297714D01*
X104969619Y-118588000D02*
X103953619Y-118588000D01*
X104098761Y-118491238D01*
X104195523Y-118394476D01*
X104243904Y-118297714D01*
X104969619Y-119845904D02*
X104969619Y-119265333D01*
X104969619Y-119555619D02*
X103953619Y-119555619D01*
X104098761Y-119458857D01*
X104195523Y-119362095D01*
X104243904Y-119265333D01*
G04 #@! TO.C,RX12*
X102119619Y-116963047D02*
X101635809Y-116624380D01*
X102119619Y-116382476D02*
X101103619Y-116382476D01*
X101103619Y-116769523D01*
X101152000Y-116866285D01*
X101200380Y-116914666D01*
X101297142Y-116963047D01*
X101442285Y-116963047D01*
X101539047Y-116914666D01*
X101587428Y-116866285D01*
X101635809Y-116769523D01*
X101635809Y-116382476D01*
X101103619Y-117301714D02*
X102119619Y-117979047D01*
X101103619Y-117979047D02*
X102119619Y-117301714D01*
X102119619Y-118898285D02*
X102119619Y-118317714D01*
X102119619Y-118608000D02*
X101103619Y-118608000D01*
X101248761Y-118511238D01*
X101345523Y-118414476D01*
X101393904Y-118317714D01*
X101200380Y-119285333D02*
X101152000Y-119333714D01*
X101103619Y-119430476D01*
X101103619Y-119672380D01*
X101152000Y-119769142D01*
X101200380Y-119817523D01*
X101297142Y-119865904D01*
X101393904Y-119865904D01*
X101539047Y-119817523D01*
X102119619Y-119236952D01*
X102119619Y-119865904D01*
G04 #@! TD*
M02*
