M48
;DRILL file {KiCad (5.0.2)-1} date 2018/12/31 23:20:13
;FORMAT={-:-/ absolute / metric / decimal}
FMAT,2
METRIC,TZ
T1C0.400
T2C1.016
T3C1.200
T4C3.000
%
G90
G05
T1
X97.Y-104.
X97.Y-123.
X100.518Y-116.741
X101.Y-113.
X101.Y-124.
X103.Y-110.
X104.719Y-123.521
X104.811Y-121.629
X106.Y-110.
X109.974Y-124.252
X110.221Y-115.655
X110.8Y-103.4
X111.6Y-112.975
X113.Y-128.
X113.071Y-126.045
X116.262Y-118.3
X116.3Y-127.325
X118.38Y-117.55
X118.49Y-119.68
X119.58Y-119.67
X119.92Y-114.87
X120.005Y-128.499
X120.56Y-114.09
X120.69Y-119.71
X120.69Y-120.76
X120.93Y-122.31
X121.51Y-121.42
X121.746Y-110.202
X121.977Y-112.636
X123.Y-125.
X124.Y-116.
X124.23Y-122.7
X126.88Y-115.99
X127.62Y-116.73
X127.71Y-119.85
X128.99Y-110.05
X129.64Y-106.39
X129.84Y-123.02
X130.58Y-111.675
X131.Y-118.
X133.08Y-119.23
X133.141Y-129.155
X135.025Y-121.5
X135.025Y-122.55
X137.Y-115.
X137.654Y-122.654
X138.3Y-106.1
X138.397Y-123.397
X140.Y-111.
X140.725Y-123.507
X142.Y-128.
X145.601Y-117.5
X146.34Y-120.653
X148.268Y-108.956
T2
X102.28Y-97.73
X102.28Y-100.27
X104.82Y-97.73
X104.82Y-100.27
X107.36Y-97.73
X107.36Y-100.27
X109.9Y-97.73
X109.9Y-100.27
X112.44Y-97.73
X112.44Y-100.27
X114.98Y-97.73
X114.98Y-100.27
X117.52Y-97.73
X117.52Y-100.27
X120.06Y-97.73
X120.06Y-100.27
X122.6Y-97.73
X122.6Y-100.27
X125.14Y-97.73
X125.14Y-100.27
X127.68Y-97.73
X127.68Y-100.27
X130.22Y-97.73
X130.22Y-100.27
X132.76Y-97.73
X132.76Y-100.27
X135.3Y-97.73
X135.3Y-100.27
X137.84Y-97.73
X137.84Y-100.27
X140.38Y-97.73
X140.38Y-100.27
X142.92Y-97.73
X142.92Y-100.27
T3
X140.2Y-128.
X130.4Y-127.8
T4
X147.Y-127.
X98.Y-98.
X147.Y-98.
X98.Y-127.
T0
M30
